<?xml version="1.0" encoding="UTF-8"?><svg xmlns="http://www.w3.org/2000/svg" xmlns:xlink="http://www.w3.org/1999/xlink" fill-opacity="1" color-rendering="auto" color-interpolation="auto" text-rendering="auto" stroke="black" stroke-linecap="square" width="546" stroke-miterlimit="10" shape-rendering="auto" stroke-opacity="1" fill="black" stroke-dasharray="none" font-weight="normal" stroke-width="1" height="987" font-family="'Dialog'" font-style="normal" stroke-linejoin="miter" font-size="12px" stroke-dashoffset="0" image-rendering="auto">
  <!--Generated by ySVG 2.5-->
  <defs id="genericDefs"/>
  <g>
    <defs id="defs1">
      <clipPath clipPathUnits="userSpaceOnUse" id="clipPath1">
        <path d="M0 0 L546 0 L546 987 L0 987 L0 0 Z"/>
      </clipPath>
      <clipPath clipPathUnits="userSpaceOnUse" id="clipPath2">
        <path d="M37 4 L583 4 L583 991 L37 991 L37 4 Z"/>
      </clipPath>
      <clipPath clipPathUnits="userSpaceOnUse" id="clipPath3">
        <path d="M210.2186 -18.2429 L210.2186 527.7571 L-776.7814 527.7571 L-776.7814 -18.2429 L210.2186 -18.2429 Z"/>
      </clipPath>
      <clipPath clipPathUnits="userSpaceOnUse" id="clipPath4">
        <path d="M431.5339 -18.2429 L431.5339 527.7571 L-555.4661 527.7571 L-555.4661 -18.2429 L431.5339 -18.2429 Z"/>
      </clipPath>
      <clipPath clipPathUnits="userSpaceOnUse" id="clipPath5">
        <path d="M884.1886 -18.2429 L884.1886 527.7571 L-102.8114 527.7571 L-102.8114 -18.2429 L884.1886 -18.2429 Z"/>
      </clipPath>
    </defs>
    <g fill="white" text-rendering="geometricPrecision" shape-rendering="geometricPrecision" transform="translate(-37,-4)" stroke="white">
      <rect x="37" width="546" height="987" y="4" clip-path="url(#clipPath2)" stroke="none"/>
    </g>
    <g fill="rgb(236,245,255)" text-rendering="geometricPrecision" shape-rendering="geometricPrecision" transform="matrix(1,0,0,1,-37,-4)" stroke="rgb(236,245,255)">
      <path d="M52.2429 19.9 L52.2429 49.9 L567.4993 49.9 L567.4993 19.9 Z" stroke="none" clip-path="url(#clipPath2)"/>
      <rect x="52.2429" width="515.2564" height="925.798" y="49.9" clip-path="url(#clipPath2)" stroke="none"/>
      <line clip-path="url(#clipPath2)" fill="rgb(113,146,178)" x1="76.2429" x2="567.4993" y1="49.9" y2="49.9" stroke="none"/>
      <rect x="52.2429" y="49.9" clip-path="url(#clipPath2)" fill="rgb(196,215,237)" width="24" height="242.6" stroke="none"/>
      <rect x="76.2429" y="49.9" clip-path="url(#clipPath2)" fill="rgb(196,215,237)" width="491.2564" height="242.6" stroke="none"/>
      <rect x="52.2429" y="292.5" clip-path="url(#clipPath2)" fill="rgb(171,200,226)" width="24" height="191.3471" stroke="none"/>
      <rect x="76.2429" y="292.5" clip-path="url(#clipPath2)" fill="rgb(171,200,226)" width="491.2564" height="191.3471" stroke="none"/>
      <rect x="52.2429" y="483.8471" clip-path="url(#clipPath2)" fill="rgb(196,215,237)" width="24" height="491.851" stroke="none"/>
      <rect x="76.2429" y="483.8471" clip-path="url(#clipPath2)" fill="rgb(196,215,237)" width="491.2564" height="491.851" stroke="none"/>
    </g>
    <g text-rendering="geometricPrecision" stroke-miterlimit="1.45" shape-rendering="geometricPrecision" transform="matrix(1,0,0,1,-37,-4)" stroke-linecap="butt">
      <rect fill="none" x="52.2429" width="515.2564" height="955.798" y="19.9" clip-path="url(#clipPath2)"/>
      <rect fill="none" x="76.2429" width="491.2564" height="925.798" y="49.9" clip-path="url(#clipPath2)"/>
      <rect fill="none" x="52.2429" width="515.2564" height="242.6" y="49.9" clip-path="url(#clipPath2)"/>
      <rect fill="none" x="52.2429" width="515.2564" height="191.3471" y="292.5" clip-path="url(#clipPath2)"/>
      <rect fill="none" x="52.2429" width="515.2564" height="491.851" y="483.8471" clip-path="url(#clipPath2)"/>
    </g>
    <g font-size="15px" stroke-linecap="butt" transform="matrix(1,0,0,1,-37,-4)" text-rendering="geometricPrecision" font-family="sans-serif" shape-rendering="geometricPrecision" stroke-miterlimit="1.45">
      <text x="267.7715" xml:space="preserve" y="40.9806" clip-path="url(#clipPath2)" stroke="none">faoswsStock</text>
    </g>
    <g text-rendering="geometricPrecision" stroke-miterlimit="1.45" shape-rendering="geometricPrecision" font-family="sans-serif" transform="matrix(-0,-1,1,-0,18.2429,210.2186)" stroke-linecap="butt">
      <text x="2" xml:space="preserve" y="14.0645" clip-path="url(#clipPath3)" stroke="none">Data Extraction</text>
    </g>
    <g text-rendering="geometricPrecision" stroke-miterlimit="1.45" shape-rendering="geometricPrecision" font-family="sans-serif" transform="matrix(-0,-1,1,-0,18.2429,431.5339)" stroke-linecap="butt">
      <text x="2" xml:space="preserve" y="14.0645" clip-path="url(#clipPath4)" stroke="none">Data Preparation</text>
    </g>
    <g text-rendering="geometricPrecision" stroke-miterlimit="1.45" shape-rendering="geometricPrecision" font-family="sans-serif" transform="matrix(-0,-1,1,-0,18.2429,884.1886)" stroke-linecap="butt">
      <text x="2" xml:space="preserve" y="14.0645" clip-path="url(#clipPath5)" stroke="none">Computing closing stocks, delta stocks and opening stocks</text>
    </g>
    <g fill="rgb(153,204,255)" text-rendering="geometricPrecision" shape-rendering="geometricPrecision" transform="matrix(1,0,0,1,-37,-4)" stroke="rgb(153,204,255)">
      <rect x="241.3328" width="115" height="74.7936" y="202.6899" clip-path="url(#clipPath2)" stroke="none"/>
    </g>
    <g text-rendering="geometricPrecision" stroke-miterlimit="1.45" shape-rendering="geometricPrecision" font-family="sans-serif" transform="matrix(1,0,0,1,-37,-4)" stroke-linecap="butt">
      <text x="260.1462" xml:space="preserve" y="222.7488" clip-path="url(#clipPath2)" stroke="none">Commodities:</text>
      <text x="260.1462" xml:space="preserve" y="237.45" clip-path="url(#clipPath2)" stroke="none">- cereals</text>
      <text x="260.1462" xml:space="preserve" y="252.1512" clip-path="url(#clipPath2)" stroke="none">- pulses</text>
      <text x="260.1462" xml:space="preserve" y="266.8523" clip-path="url(#clipPath2)" stroke="none">- refined sugar</text>
      <rect fill="none" x="241.3328" width="115" height="74.7936" y="202.6899" clip-path="url(#clipPath2)"/>
    </g>
    <g fill="rgb(153,204,255)" text-rendering="geometricPrecision" shape-rendering="geometricPrecision" transform="matrix(1,0,0,1,-37,-4)" stroke="rgb(153,204,255)">
      <rect x="92.7624" width="223.7072" height="111" y="68.5623" clip-path="url(#clipPath2)" stroke="none"/>
    </g>
    <g text-rendering="geometricPrecision" stroke-miterlimit="1.45" shape-rendering="geometricPrecision" font-family="sans-serif" transform="matrix(1,0,0,1,-37,-4)" stroke-linecap="butt">
      <text x="100.2313" xml:space="preserve" y="99.3739" clip-path="url(#clipPath2)" stroke="none">agriculture:aproduction</text>
      <text x="100.2313" xml:space="preserve" y="114.075" clip-path="url(#clipPath2)" stroke="none">- time: 1999-2014</text>
      <text x="100.2313" xml:space="preserve" y="128.7762" clip-path="url(#clipPath2)" stroke="none">- all countries</text>
      <text x="100.2313" xml:space="preserve" y="143.4774" clip-path="url(#clipPath2)" stroke="none">- Delta Stocks: measuredElement 5071</text>
      <text x="100.2313" xml:space="preserve" y="158.1786" clip-path="url(#clipPath2)" stroke="none">- Production: measuredElement 5510</text>
      <rect fill="none" x="92.7624" width="223.7072" height="111" y="68.5623" clip-path="url(#clipPath2)"/>
    </g>
    <g fill="rgb(255,204,153)" text-rendering="geometricPrecision" shape-rendering="geometricPrecision" transform="matrix(1,0,0,1,-37,-4)" stroke="rgb(255,204,153)">
      <rect x="330.8862" width="207.7338" height="111" y="69.1579" clip-path="url(#clipPath2)" stroke="none"/>
    </g>
    <g text-rendering="geometricPrecision" stroke-miterlimit="1.45" shape-rendering="geometricPrecision" font-family="sans-serif" transform="matrix(1,0,0,1,-37,-4)" stroke-linecap="butt">
      <text x="343.7072" xml:space="preserve" y="99.9695" clip-path="url(#clipPath2)" stroke="none">trade:total_trade</text>
      <text x="343.7072" xml:space="preserve" y="114.6706" clip-path="url(#clipPath2)" stroke="none">- time: 1999-2014</text>
      <text x="343.7072" xml:space="preserve" y="129.3718" clip-path="url(#clipPath2)" stroke="none">- all countries</text>
      <text x="343.7072" xml:space="preserve" y="144.073" clip-path="url(#clipPath2)" stroke="none">- Imports: measuredElement 5610</text>
      <text x="343.7072" xml:space="preserve" y="158.7741" clip-path="url(#clipPath2)" stroke="none">- Exports: measuredElement 5910</text>
      <rect fill="none" x="330.8862" width="207.7338" height="111" y="69.1579" clip-path="url(#clipPath2)"/>
    </g>
    <g fill="rgb(153,204,255)" text-rendering="geometricPrecision" shape-rendering="geometricPrecision" transform="matrix(1,0,0,1,-37,-4)" stroke="rgb(153,204,255)">
      <rect x="349.9572" width="187.7096" height="70.7032" y="696.4386" clip-path="url(#clipPath2)" stroke="none"/>
    </g>
    <g text-rendering="geometricPrecision" stroke-miterlimit="1.45" shape-rendering="geometricPrecision" font-family="sans-serif" transform="matrix(1,0,0,1,-37,-4)" stroke-linecap="butt">
      <text x="358.4526" xml:space="preserve" y="721.8029" clip-path="url(#clipPath2)" stroke="none">Coefficients from AMIS Analysis</text>
      <text x="358.4526" xml:space="preserve" y="736.504" clip-path="url(#clipPath2)" stroke="none">- cereals</text>
      <text x="358.4526" xml:space="preserve" y="751.2052" clip-path="url(#clipPath2)" stroke="none">- pulses</text>
      <rect fill="none" x="349.9572" width="187.7096" height="70.7032" y="696.4386" clip-path="url(#clipPath2)"/>
    </g>
    <g fill="rgb(153,204,255)" text-rendering="geometricPrecision" shape-rendering="geometricPrecision" transform="matrix(1,0,0,1,-37,-4)" stroke="rgb(153,204,255)">
      <rect x="316.6636" width="245.2138" height="52.6" y="620.9995" clip-path="url(#clipPath2)" stroke="none"/>
    </g>
    <g text-rendering="geometricPrecision" stroke-miterlimit="1.45" shape-rendering="geometricPrecision" font-family="sans-serif" transform="matrix(1,0,0,1,-37,-4)" stroke-linecap="butt">
      <text x="334.5752" xml:space="preserve" y="644.6627" clip-path="url(#clipPath2)" stroke="none">Coefficients from F.O. LICHTS analysis</text>
      <text x="334.5752" xml:space="preserve" y="659.3639" clip-path="url(#clipPath2)" stroke="none">- refined sugar</text>
      <rect fill="none" x="316.6636" width="245.2138" height="52.6" y="620.9995" clip-path="url(#clipPath2)"/>
    </g>
    <g fill="rgb(153,204,255)" text-rendering="geometricPrecision" shape-rendering="geometricPrecision" transform="matrix(1,0,0,1,-37,-4)" stroke="rgb(153,204,255)">
      <rect x="104.8185" width="172.8011" height="52.6" y="321.8383" clip-path="url(#clipPath2)" stroke="none"/>
    </g>
    <g text-rendering="geometricPrecision" stroke-miterlimit="1.45" shape-rendering="geometricPrecision" font-family="sans-serif" transform="matrix(1,0,0,1,-37,-4)" stroke-linecap="butt">
      <text x="121.5247" xml:space="preserve" y="338.151" clip-path="url(#clipPath2)" stroke="none">Calculate total supply</text>
      <text x="121.5247" xml:space="preserve" y="352.8522" clip-path="url(#clipPath2)" stroke="none">(PROD + IMP - EXP)</text>
      <text x="121.5247" xml:space="preserve" y="367.5533" clip-path="url(#clipPath2)" stroke="none">* using just PROD for now</text>
      <rect fill="none" x="104.8185" width="172.8011" height="52.6" y="321.8383" clip-path="url(#clipPath2)"/>
    </g>
    <g fill="rgb(153,204,255)" text-rendering="geometricPrecision" shape-rendering="geometricPrecision" transform="matrix(1,0,0,1,-37,-4)" stroke="rgb(153,204,255)">
      <rect x="324.9057" width="189.4239" height="59.1484" y="353.8313" clip-path="url(#clipPath2)" stroke="none"/>
    </g>
    <g text-rendering="geometricPrecision" stroke-miterlimit="1.45" shape-rendering="geometricPrecision" font-family="sans-serif" transform="matrix(1,0,0,1,-37,-4)" stroke-linecap="butt">
      <text x="331.9145" xml:space="preserve" y="366.0676" clip-path="url(#clipPath2)" stroke="none">Income Classification by country:</text>
      <text x="331.9145" xml:space="preserve" y="380.7688" clip-path="url(#clipPath2)" stroke="none">- High</text>
      <text x="331.9145" xml:space="preserve" y="395.47" clip-path="url(#clipPath2)" stroke="none">- Upper/Lower Middle</text>
      <text x="331.9145" xml:space="preserve" y="410.1711" clip-path="url(#clipPath2)" stroke="none">- Low</text>
      <rect fill="none" x="324.9057" width="189.4239" height="59.1484" y="353.8313" clip-path="url(#clipPath2)"/>
    </g>
    <g fill="rgb(153,204,255)" text-rendering="geometricPrecision" shape-rendering="geometricPrecision" transform="matrix(1,0,0,1,-37,-4)" stroke="rgb(153,204,255)">
      <rect x="317.0521" width="172.8011" height="52.6" y="498.6681" clip-path="url(#clipPath2)" stroke="none"/>
    </g>
    <g text-rendering="geometricPrecision" stroke-miterlimit="1.45" shape-rendering="geometricPrecision" font-family="sans-serif" transform="matrix(1,0,0,1,-37,-4)" stroke-linecap="butt">
      <text x="342.5034" xml:space="preserve" y="522.3314" clip-path="url(#clipPath2)" stroke="none">"Income" Classification</text>
      <text x="342.5034" xml:space="preserve" y="537.0325" clip-path="url(#clipPath2)" stroke="none">- by country</text>
      <rect fill="none" x="317.0521" width="172.8011" height="52.6" y="498.6681" clip-path="url(#clipPath2)"/>
    </g>
    <g fill="rgb(153,204,255)" text-rendering="geometricPrecision" shape-rendering="geometricPrecision" transform="matrix(1,0,0,1,-37,-4)" stroke="rgb(153,204,255)">
      <rect x="108.8974" width="172.8011" height="52.6" y="411.6467" clip-path="url(#clipPath2)" stroke="none"/>
    </g>
    <g text-rendering="geometricPrecision" stroke-miterlimit="1.45" shape-rendering="geometricPrecision" font-family="sans-serif" transform="matrix(1,0,0,1,-37,-4)" stroke-linecap="butt">
      <text x="144.2716" xml:space="preserve" y="442.6606" clip-path="url(#clipPath2)" stroke="none">Data for Imputation</text>
      <rect fill="none" x="108.8974" width="172.8011" height="52.6" y="411.6467" clip-path="url(#clipPath2)"/>
    </g>
    <g fill="rgb(153,204,255)" text-rendering="geometricPrecision" shape-rendering="geometricPrecision" transform="matrix(1,0,0,1,-37,-4)" stroke="rgb(153,204,255)">
      <rect x="101.9987" width="172.8011" height="52.6" y="551.3633" clip-path="url(#clipPath2)" stroke="none"/>
    </g>
    <g text-rendering="geometricPrecision" stroke-miterlimit="1.45" shape-rendering="geometricPrecision" font-family="sans-serif" transform="matrix(1,0,0,1,-37,-4)" stroke-linecap="butt">
      <text x="141.7088" xml:space="preserve" y="582.3771" clip-path="url(#clipPath2)" stroke="none">Apply coefficients</text>
      <rect fill="none" x="101.9987" width="172.8011" height="52.6" y="551.3633" clip-path="url(#clipPath2)"/>
    </g>
    <g fill="rgb(153,204,255)" text-rendering="geometricPrecision" shape-rendering="geometricPrecision" transform="matrix(1,0,0,1,-37,-4)" stroke="rgb(153,204,255)">
      <rect x="96.9665" width="172.8011" height="52.6" y="682.3851" clip-path="url(#clipPath2)" stroke="none"/>
    </g>
    <g text-rendering="geometricPrecision" stroke-miterlimit="1.45" shape-rendering="geometricPrecision" font-family="sans-serif" transform="matrix(1,0,0,1,-37,-4)" stroke-linecap="butt">
      <text x="109.3426" xml:space="preserve" y="713.399" clip-path="url(#clipPath2)" stroke="none">Estimates for closing stocks</text>
      <rect fill="none" x="96.9665" width="172.8011" height="52.6" y="682.3851" clip-path="url(#clipPath2)"/>
    </g>
    <g fill="rgb(204,255,204)" text-rendering="geometricPrecision" shape-rendering="geometricPrecision" transform="matrix(1,0,0,1,-37,-4)" stroke="rgb(204,255,204)">
      <rect x="89.0232" width="228.2104" height="54.1112" y="804.8816" clip-path="url(#clipPath2)" stroke="none"/>
    </g>
    <g text-rendering="geometricPrecision" stroke-miterlimit="1.45" shape-rendering="geometricPrecision" font-family="sans-serif" transform="matrix(1,0,0,1,-37,-4)" stroke-linecap="butt">
      <text x="93.4057" xml:space="preserve" y="821.95" clip-path="url(#clipPath2)" stroke="none">Calculate:</text>
      <text x="93.4057" xml:space="preserve" y="836.6511" clip-path="url(#clipPath2)" stroke="none">- delta stocks (Closing_t - Closing_t-1)</text>
      <text x="93.4057" xml:space="preserve" y="851.3523" clip-path="url(#clipPath2)" stroke="none">- opening stocks (mesuredElement 5113)</text>
      <rect fill="none" x="89.0232" width="228.2104" height="54.1112" y="804.8816" clip-path="url(#clipPath2)"/>
    </g>
    <g fill="rgb(153,204,255)" text-rendering="geometricPrecision" shape-rendering="geometricPrecision" transform="matrix(1,0,0,1,-37,-4)" stroke="rgb(153,204,255)">
      <rect x="360.3931" width="172.8011" height="52.6" y="824.981" clip-path="url(#clipPath2)" stroke="none"/>
    </g>
    <g text-rendering="geometricPrecision" stroke-miterlimit="1.45" shape-rendering="geometricPrecision" font-family="sans-serif" transform="matrix(1,0,0,1,-37,-4)" stroke-linecap="butt">
      <text x="377.7555" xml:space="preserve" y="855.9948" clip-path="url(#clipPath2)" stroke="none">filter non-protected values</text>
      <rect fill="none" x="360.3931" width="172.8011" height="52.6" y="824.981" clip-path="url(#clipPath2)"/>
    </g>
    <g fill="rgb(153,204,255)" text-rendering="geometricPrecision" shape-rendering="geometricPrecision" transform="matrix(1,0,0,1,-37,-4)" stroke="rgb(153,204,255)">
      <rect x="208.9923" width="172.8011" height="52.6" y="912.0415" clip-path="url(#clipPath2)" stroke="none"/>
    </g>
    <g text-rendering="geometricPrecision" stroke-miterlimit="1.45" shape-rendering="geometricPrecision" font-family="sans-serif" transform="matrix(1,0,0,1,-37,-4)" stroke-linecap="butt">
      <text x="246.0306" xml:space="preserve" y="943.0554" clip-path="url(#clipPath2)" stroke="none">Final imputed data</text>
      <rect fill="none" x="208.9923" width="172.8011" height="52.6" y="912.0415" clip-path="url(#clipPath2)"/>
      <path fill="none" d="M191.1344 179.5472 L190.8002 183.4144 L191.239 195.0914 L193.2348 205.504 L196.7878 214.6521 L201.8978 222.5359 L208.5648 229.1552 L216.789 234.5101 L226.5703 238.6006 L233.4548 240.3165 L233.5541 240.3286" clip-path="url(#clipPath2)"/>
      <path d="M241.4067 241.8574 L230.5834 234.6563 L232.5726 240.1374 L228.6723 244.4719 Z" clip-path="url(#clipPath2)" stroke="none"/>
      <path fill="none" d="M421.8528 180.1531 L417.0772 189.9311 L410.8366 199.8001 L403.6943 208.6072 L395.6501 216.3524 L386.7042 223.0358 L376.8565 228.6573 L366.107 233.2169 L363.9839 233.8542" clip-path="url(#clipPath2)"/>
      <path d="M356.3218 236.1544 L369.2527 237.493 L364.9417 233.5667 L366.3774 227.9152 Z" clip-path="url(#clipPath2)" stroke="none"/>
      <path fill="none" d="M294.8989 277.5227 L292.189 287.2772 L288.4177 296.973 L283.8022 305.828 L278.3426 313.8423 L276.5123 315.9251 L276.4375 315.9914" clip-path="url(#clipPath2)"/>
      <path d="M271.0504 321.9058 L282.8275 316.4012 L277.1108 315.2521 L275.4345 309.6674 Z" clip-path="url(#clipPath2)" stroke="none"/>
      <path fill="none" d="M235.4997 321.8434 L239.4165 319.9558 L254.9312 314.1304 L270.1705 310.0893 L285.1342 307.8326 L299.8224 307.3602 L314.2351 308.6722 L328.3723 311.7686 L342.2339 316.6494 L355.82 323.3145 L369.1306 331.764 L382.1656 341.9978 L388.9272 348.3665" clip-path="url(#clipPath2)"/>
      <path d="M394.7507 353.8517 L389.4437 341.9843 L388.1993 347.6809 L382.5872 349.2636 Z" clip-path="url(#clipPath2)" stroke="none"/>
      <path fill="none" d="M398.8835 412.9948 L397.5431 414.7581 L385.8667 427.8057 L373.7642 439.1007 L361.2356 448.6433 L348.2809 456.4334 L334.9 462.4709 L321.0931 466.756 L306.8601 469.2886 L292.201 470.0687 L277.1157 469.0963 L261.746 466.3962 L261.6497 466.3692" clip-path="url(#clipPath2)"/>
      <path d="M253.944 464.2195 L264.159 472.2602 L262.6129 466.6379 L266.8462 462.628 Z" clip-path="url(#clipPath2)" stroke="none"/>
      <path fill="none" d="M317.0265 545.5525 L295.7552 550.6187 L282.571 553.9399" clip-path="url(#clipPath2)"/>
      <path d="M274.8134 555.8942 L287.6713 557.8113 L283.5407 553.6957 L285.2284 548.1143 Z" clip-path="url(#clipPath2)" stroke="none"/>
      <path fill="none" d="M362.0994 621.002 L315.3814 606.9096 L282.5552 598.5782" clip-path="url(#clipPath2)"/>
      <path d="M274.8011 596.6102 L285.2023 604.4086 L283.5245 598.8242 L287.6623 594.7158 Z" clip-path="url(#clipPath2)" stroke="none"/>
      <path fill="none" d="M349.9776 708.1945 L349.3159 707.952 L332.018 700.5306 L315.254 692.2245 L299.0238 683.0339 L283.3274 672.9587 L268.1649 661.9988 L253.5361 650.1544 L239.4411 637.4254 L213.7101 610.2203 L213.649 610.1411" clip-path="url(#clipPath2)"/>
      <path d="M208.6589 603.8882 L212.236 616.3864 L214.2727 610.9227 L220.0521 610.1487 Z" clip-path="url(#clipPath2)" stroke="none"/>
      <path fill="none" d="M195.2726 464.2404 L195.2642 472.9594 L194.1031 507.9163 L191.8148 542.8176 L191.758 543.397" clip-path="url(#clipPath2)"/>
      <path d="M190.9776 551.3589 L197.1244 539.9039 L191.8555 542.4018 L187.1721 538.9283 Z" clip-path="url(#clipPath2)" stroke="none"/>
      <path fill="none" d="M207.4859 603.9923 L211.7077 611.3623 L217.2204 627.9759 L218.4413 636.2238 L218.6386 644.4323 L217.8123 652.6014 L215.9623 660.7313 L209.7102 675.6369 L209.654 675.7196" clip-path="url(#clipPath2)"/>
      <path d="M205.3822 682.4836 L216.0174 675.0074 L210.188 674.8741 L207.5624 669.6677 Z" clip-path="url(#clipPath2)" stroke="none"/>
      <path fill="none" d="M210.7318 735.0077 L211.4171 735.7929 L219.6647 750.2731 L224.0607 765.3708 L224.6051 781.0862 L221.2978 797.419 L221.2643 797.4982" clip-path="url(#clipPath2)"/>
      <path d="M218.1518 804.8679 L227.4266 795.7587 L221.6534 796.577 L218.2145 791.868 Z" clip-path="url(#clipPath2)" stroke="none"/>
      <path fill="none" d="M240.6269 804.8645 L251.7625 798.4433 L267.6716 791.0859 L283.4296 785.6322 L299.0365 782.0821 L314.4922 780.4356 L329.7969 780.6928 L344.9504 782.8536 L359.9528 786.918 L374.8041 792.8861 L389.5042 800.7578 L404.0533 810.5331 L415.3682 819.7114 L415.4406 819.7804" clip-path="url(#clipPath2)"/>
      <path d="M421.4479 825.0636 L415.739 813.3842 L414.6897 819.12 L409.1349 820.8934 Z" clip-path="url(#clipPath2)" stroke="none"/>
      <path fill="none" d="M437.8339 877.569 L437.3908 878.723 L431.6691 890.6697 L425.2673 901.4337 L418.1853 911.0148 L410.4232 919.4131 L401.9809 926.6287 L392.8584 932.6614 L389.0284 934.5563 L388.934 934.5893" clip-path="url(#clipPath2)"/>
      <path d="M381.6964 937.9976 L394.683 937.4086 L389.8387 934.1632 L390.4226 928.3616 Z" clip-path="url(#clipPath2)" stroke="none"/>
    </g>
  </g>
</svg>
