<?xml version="1.0" encoding="UTF-8"?><svg xmlns="http://www.w3.org/2000/svg" xmlns:xlink="http://www.w3.org/1999/xlink" fill-opacity="1" color-rendering="auto" color-interpolation="auto" text-rendering="auto" stroke="black" stroke-linecap="square" width="937" stroke-miterlimit="10" shape-rendering="auto" stroke-opacity="1" fill="black" stroke-dasharray="none" font-weight="normal" stroke-width="1" height="1011" font-family="'Dialog'" font-style="normal" stroke-linejoin="miter" font-size="12px" stroke-dashoffset="0" image-rendering="auto">
  <!--Generated by ySVG 2.5-->
  <defs id="genericDefs"/>
  <g>
    <defs id="defs1">
      <clipPath clipPathUnits="userSpaceOnUse" id="clipPath1">
        <path d="M0 0 L937 0 L937 1011 L0 1011 L0 0 Z"/>
      </clipPath>
      <clipPath clipPathUnits="userSpaceOnUse" id="clipPath2">
        <path d="M-11 4 L926 4 L926 1015 L-11 1015 L-11 4 Z"/>
      </clipPath>
      <clipPath clipPathUnits="userSpaceOnUse" id="clipPath3">
        <path d="M181.8738 -18.5333 L181.8738 918.4667 L-829.1262 918.4667 L-829.1262 -18.5333 L181.8738 -18.5333 Z"/>
      </clipPath>
      <clipPath clipPathUnits="userSpaceOnUse" id="clipPath4">
        <path d="M489.9916 -18.5333 L489.9916 918.4667 L-521.0084 918.4667 L-521.0084 -18.5333 L489.9916 -18.5333 Z"/>
      </clipPath>
      <clipPath clipPathUnits="userSpaceOnUse" id="clipPath5">
        <path d="M862.0107 -18.5333 L862.0107 918.4667 L-148.9893 918.4667 L-148.9893 -18.5333 L862.0107 -18.5333 Z"/>
      </clipPath>
    </defs>
    <g fill="white" text-rendering="geometricPrecision" shape-rendering="geometricPrecision" transform="translate(11,-4)" stroke="white">
      <rect x="-11" width="937" height="1011" y="4" clip-path="url(#clipPath2)" stroke="none"/>
    </g>
    <g fill="rgb(236,245,255)" text-rendering="geometricPrecision" shape-rendering="geometricPrecision" transform="matrix(1,0,0,1,11,-4)" stroke="rgb(236,245,255)">
      <path d="M4.5333 19.9 L4.5333 49.9 L910.175 49.9 L910.175 19.9 Z" stroke="none" clip-path="url(#clipPath2)"/>
      <rect x="4.5333" width="905.6417" height="949.3023" y="49.9" clip-path="url(#clipPath2)" stroke="none"/>
      <line clip-path="url(#clipPath2)" fill="rgb(113,146,178)" x1="28.5333" x2="910.175" y1="49.9" y2="49.9" stroke="none"/>
      <rect x="4.5333" y="49.9" clip-path="url(#clipPath2)" fill="rgb(196,215,237)" width="24" height="242.6" stroke="none"/>
      <rect x="28.5333" y="49.9" clip-path="url(#clipPath2)" fill="rgb(196,215,237)" width="881.6417" height="242.6" stroke="none"/>
      <rect x="4.5333" y="292.5" clip-path="url(#clipPath2)" fill="rgb(171,200,226)" width="24" height="308.2625" stroke="none"/>
      <rect x="28.5333" y="292.5" clip-path="url(#clipPath2)" fill="rgb(171,200,226)" width="881.6417" height="308.2625" stroke="none"/>
      <rect x="4.5333" y="600.7625" clip-path="url(#clipPath2)" fill="rgb(196,215,237)" width="24" height="398.4398" stroke="none"/>
      <rect x="28.5333" y="600.7625" clip-path="url(#clipPath2)" fill="rgb(196,215,237)" width="881.6417" height="398.4398" stroke="none"/>
    </g>
    <g text-rendering="geometricPrecision" stroke-miterlimit="1.45" shape-rendering="geometricPrecision" transform="matrix(1,0,0,1,11,-4)" stroke-linecap="butt">
      <rect fill="none" x="4.5333" width="905.6417" height="979.3023" y="19.9" clip-path="url(#clipPath2)"/>
      <rect fill="none" x="28.5333" width="881.6417" height="949.3023" y="49.9" clip-path="url(#clipPath2)"/>
      <rect fill="none" x="4.5333" width="905.6417" height="242.6" y="49.9" clip-path="url(#clipPath2)"/>
      <rect fill="none" x="4.5333" width="905.6417" height="308.2625" y="292.5" clip-path="url(#clipPath2)"/>
      <rect fill="none" x="4.5333" width="905.6417" height="398.4398" y="600.7625" clip-path="url(#clipPath2)"/>
    </g>
    <g font-size="15px" stroke-linecap="butt" transform="matrix(1,0,0,1,11,-4)" text-rendering="geometricPrecision" font-family="sans-serif" shape-rendering="geometricPrecision" stroke-miterlimit="1.45">
      <text x="415.2545" xml:space="preserve" y="40.9806" clip-path="url(#clipPath2)" stroke="none">faoswsStock</text>
    </g>
    <g text-rendering="geometricPrecision" stroke-miterlimit="1.45" shape-rendering="geometricPrecision" font-family="sans-serif" transform="matrix(-0,-1,1,-0,18.5333,181.8738)" stroke-linecap="butt">
      <text x="2" xml:space="preserve" y="14.0645" clip-path="url(#clipPath3)" stroke="none">Data</text>
    </g>
    <g text-rendering="geometricPrecision" stroke-miterlimit="1.45" shape-rendering="geometricPrecision" font-family="sans-serif" transform="matrix(-0,-1,1,-0,18.5333,489.9916)" stroke-linecap="butt">
      <text x="2" xml:space="preserve" y="14.0645" clip-path="url(#clipPath4)" stroke="none">Data Preparation</text>
    </g>
    <g text-rendering="geometricPrecision" stroke-miterlimit="1.45" shape-rendering="geometricPrecision" font-family="sans-serif" transform="matrix(-0,-1,1,-0,18.5333,862.0107)" stroke-linecap="butt">
      <text x="2" xml:space="preserve" y="14.0645" clip-path="url(#clipPath5)" stroke="none">Model Fitting (log value)</text>
    </g>
    <g fill="rgb(153,204,255)" text-rendering="geometricPrecision" shape-rendering="geometricPrecision" transform="matrix(1,0,0,1,11,-4)" stroke="rgb(153,204,255)">
      <rect x="296.8125" width="176" height="111" y="76.5" clip-path="url(#clipPath2)" stroke="none"/>
    </g>
    <g text-rendering="geometricPrecision" stroke-miterlimit="1.45" shape-rendering="geometricPrecision" font-family="sans-serif" transform="matrix(1,0,0,1,11,-4)" stroke-linecap="butt">
      <text x="339.1357" xml:space="preserve" y="114.6621" clip-path="url(#clipPath2)" stroke="none">keep variables:</text>
      <text x="339.1357" xml:space="preserve" y="129.3633" clip-path="url(#clipPath2)" stroke="none">- Production</text>
      <text x="339.1357" xml:space="preserve" y="144.0645" clip-path="url(#clipPath2)" stroke="none">- Imports/Exports</text>
      <text x="339.1357" xml:space="preserve" y="158.7656" clip-path="url(#clipPath2)" stroke="none">- Stocks</text>
      <rect fill="none" x="296.8125" width="176" height="111" y="76.5" clip-path="url(#clipPath2)"/>
    </g>
    <g fill="rgb(153,204,255)" text-rendering="geometricPrecision" shape-rendering="geometricPrecision" transform="matrix(1,0,0,1,11,-4)" stroke="rgb(153,204,255)">
      <rect x="561.8125" width="115" height="111" y="76.5" clip-path="url(#clipPath2)" stroke="none"/>
    </g>
    <g text-rendering="geometricPrecision" stroke-miterlimit="1.45" shape-rendering="geometricPrecision" font-family="sans-serif" transform="matrix(1,0,0,1,11,-4)" stroke-linecap="butt">
      <text x="569.291" xml:space="preserve" y="92.6104" clip-path="url(#clipPath2)" stroke="none">keep commodities:</text>
      <text x="569.291" xml:space="preserve" y="107.3115" clip-path="url(#clipPath2)" stroke="none">- wheat</text>
      <text x="569.291" xml:space="preserve" y="122.0127" clip-path="url(#clipPath2)" stroke="none">- maize</text>
      <text x="569.291" xml:space="preserve" y="136.7139" clip-path="url(#clipPath2)" stroke="none">- sorghum</text>
      <text x="569.291" xml:space="preserve" y="151.415" clip-path="url(#clipPath2)" stroke="none">- barley</text>
      <text x="569.291" xml:space="preserve" y="166.1162" clip-path="url(#clipPath2)" stroke="none">- rye</text>
      <text x="569.291" xml:space="preserve" y="180.8174" clip-path="url(#clipPath2)" stroke="none">- oats</text>
      <rect fill="none" x="561.8125" width="115" height="111" y="76.5" clip-path="url(#clipPath2)"/>
    </g>
    <g fill="rgb(153,204,255)" text-rendering="geometricPrecision" shape-rendering="geometricPrecision" transform="matrix(1,0,0,1,11,-4)" stroke="rgb(153,204,255)">
      <rect x="737.0125" width="133.4" height="111" y="76.5" clip-path="url(#clipPath2)" stroke="none"/>
    </g>
    <g text-rendering="geometricPrecision" stroke-miterlimit="1.45" shape-rendering="geometricPrecision" font-family="sans-serif" transform="matrix(1,0,0,1,11,-4)" stroke-linecap="butt">
      <text x="758.361" xml:space="preserve" y="122.0127" clip-path="url(#clipPath2)" stroke="none">remove with flag:</text>
      <text x="758.361" xml:space="preserve" y="136.7139" clip-path="url(#clipPath2)" stroke="none">- missing</text>
      <text x="758.361" xml:space="preserve" y="151.415" clip-path="url(#clipPath2)" stroke="none">- unofficial</text>
      <rect fill="none" x="737.0125" width="133.4" height="111" y="76.5" clip-path="url(#clipPath2)"/>
    </g>
    <g fill="rgb(153,204,255)" text-rendering="geometricPrecision" shape-rendering="geometricPrecision" transform="matrix(1,0,0,1,11,-4)" stroke="rgb(153,204,255)">
      <rect x="62.1125" width="176" height="111" y="76.5" clip-path="url(#clipPath2)" stroke="none"/>
    </g>
    <g text-rendering="geometricPrecision" stroke-miterlimit="1.45" shape-rendering="geometricPrecision" font-family="sans-serif" transform="matrix(1,0,0,1,11,-4)" stroke-linecap="butt">
      <text x="77.7404" xml:space="preserve" y="122.0127" clip-path="url(#clipPath2)" stroke="none">faostat_one:FS_SUA_UPD</text>
      <text x="77.7404" xml:space="preserve" y="136.7139" clip-path="url(#clipPath2)" stroke="none">- time: 2000-2011</text>
      <text x="77.7404" xml:space="preserve" y="151.415" clip-path="url(#clipPath2)" stroke="none">- all countries</text>
      <rect fill="none" x="62.1125" width="176" height="111" y="76.5" clip-path="url(#clipPath2)"/>
    </g>
    <g fill="rgb(153,204,255)" text-rendering="geometricPrecision" shape-rendering="geometricPrecision" transform="matrix(1,0,0,1,11,-4)" stroke="rgb(153,204,255)">
      <rect x="405.1125" width="133.4" height="52.6" y="217.5" clip-path="url(#clipPath2)" stroke="none"/>
    </g>
    <g text-rendering="geometricPrecision" stroke-miterlimit="1.45" shape-rendering="geometricPrecision" font-family="sans-serif" transform="matrix(1,0,0,1,11,-4)" stroke-linecap="butt">
      <text x="440.459" xml:space="preserve" y="248.5139" clip-path="url(#clipPath2)" stroke="none">filtered data</text>
      <rect fill="none" x="405.1125" width="133.4" height="52.6" y="217.5" clip-path="url(#clipPath2)"/>
    </g>
    <g fill="rgb(153,204,255)" text-rendering="geometricPrecision" shape-rendering="geometricPrecision" transform="matrix(1,0,0,1,11,-4)" stroke="rgb(153,204,255)">
      <rect x="281.5125" width="133.4" height="52.6" y="439.8" clip-path="url(#clipPath2)" stroke="none"/>
    </g>
    <g text-rendering="geometricPrecision" stroke-miterlimit="1.45" shape-rendering="geometricPrecision" font-family="sans-serif" transform="matrix(1,0,0,1,11,-4)" stroke-linecap="butt">
      <text x="289.1764" xml:space="preserve" y="470.8139" clip-path="url(#clipPath2)" stroke="none">variation of production</text>
      <rect fill="none" x="281.5125" width="133.4" height="52.6" y="439.8" clip-path="url(#clipPath2)"/>
    </g>
    <g fill="rgb(153,204,255)" text-rendering="geometricPrecision" shape-rendering="geometricPrecision" transform="matrix(1,0,0,1,11,-4)" stroke="rgb(153,204,255)">
      <rect x="405.1125" width="133.4" height="52.6" y="317.85" clip-path="url(#clipPath2)" stroke="none"/>
    </g>
    <g text-rendering="geometricPrecision" stroke-miterlimit="1.45" shape-rendering="geometricPrecision" font-family="sans-serif" transform="matrix(1,0,0,1,11,-4)" stroke-linecap="butt">
      <text x="420.127" xml:space="preserve" y="341.5133" clip-path="url(#clipPath2)" stroke="none">Stocks</text>
      <text x="420.127" xml:space="preserve" y="356.2144" clip-path="url(#clipPath2)" stroke="none">- variation of stocks</text>
      <rect fill="none" x="405.1125" width="133.4" height="52.6" y="317.85" clip-path="url(#clipPath2)"/>
    </g>
    <g fill="rgb(153,204,255)" text-rendering="geometricPrecision" shape-rendering="geometricPrecision" transform="matrix(1,0,0,1,11,-4)" stroke="rgb(153,204,255)">
      <rect x="494.5125" width="287" height="52.6" y="439.8" clip-path="url(#clipPath2)" stroke="none"/>
    </g>
    <g text-rendering="geometricPrecision" stroke-miterlimit="1.45" shape-rendering="geometricPrecision" font-family="sans-serif" transform="matrix(1,0,0,1,11,-4)" stroke-linecap="butt">
      <text x="527.4608" xml:space="preserve" y="470.8139" clip-path="url(#clipPath2)" stroke="none">variation of production + imports - exports</text>
      <rect fill="none" x="494.5125" width="287" height="52.6" y="439.8" clip-path="url(#clipPath2)"/>
    </g>
    <g fill="rgb(255,153,0)" text-rendering="geometricPrecision" shape-rendering="geometricPrecision" transform="matrix(1,0,0,1,11,-4)" stroke="rgb(255,153,0)">
      <rect x="331.675" width="133.4" height="52.6" y="662.1" clip-path="url(#clipPath2)" stroke="none"/>
    </g>
    <g text-rendering="geometricPrecision" stroke-miterlimit="1.45" shape-rendering="geometricPrecision" font-family="sans-serif" transform="matrix(1,0,0,1,11,-4)" stroke-linecap="butt">
      <text x="364.0244" xml:space="preserve" y="693.1139" clip-path="url(#clipPath2)" stroke="none">log of Stocks</text>
      <rect fill="none" x="331.675" width="133.4" height="52.6" y="662.1" clip-path="url(#clipPath2)"/>
    </g>
    <g fill="rgb(153,204,255)" text-rendering="geometricPrecision" shape-rendering="geometricPrecision" transform="matrix(1,0,0,1,11,-4)" stroke="rgb(153,204,255)">
      <rect x="486.4" width="133.4" height="52.6" y="662.1" clip-path="url(#clipPath2)" stroke="none"/>
    </g>
    <g text-rendering="geometricPrecision" stroke-miterlimit="1.45" shape-rendering="geometricPrecision" font-family="sans-serif" transform="matrix(1,0,0,1,11,-4)" stroke-linecap="butt">
      <text x="508.0707" xml:space="preserve" y="693.1139" clip-path="url(#clipPath2)" stroke="none">log of Production</text>
      <rect fill="none" x="486.4" width="133.4" height="52.6" y="662.1" clip-path="url(#clipPath2)"/>
    </g>
    <g fill="rgb(153,204,255)" text-rendering="geometricPrecision" shape-rendering="geometricPrecision" transform="matrix(1,0,0,1,11,-4)" stroke="rgb(153,204,255)">
      <rect x="649.8" width="239.4" height="52.6" y="662.1" clip-path="url(#clipPath2)" stroke="none"/>
    </g>
    <g text-rendering="geometricPrecision" stroke-miterlimit="1.45" shape-rendering="geometricPrecision" font-family="sans-serif" transform="matrix(1,0,0,1,11,-4)" stroke-linecap="butt">
      <text x="671.9561" xml:space="preserve" y="693.1139" clip-path="url(#clipPath2)" stroke="none">log of Production + Imports - Exports</text>
      <rect fill="none" x="649.8" width="239.4" height="52.6" y="662.1" clip-path="url(#clipPath2)"/>
    </g>
    <g fill="rgb(51,204,204)" text-rendering="geometricPrecision" shape-rendering="geometricPrecision" transform="matrix(1,0,0,1,11,-4)" stroke="rgb(51,204,204)">
      <rect x="314.9125" width="313.8" height="52.6" y="522.4" clip-path="url(#clipPath2)" stroke="none"/>
    </g>
    <g text-rendering="geometricPrecision" stroke-miterlimit="1.45" shape-rendering="geometricPrecision" font-family="sans-serif" transform="matrix(1,0,0,1,11,-4)" stroke-linecap="butt">
      <text x="334.7383" xml:space="preserve" y="553.4139" clip-path="url(#clipPath2)" stroke="none">add constant before log transformation (provisional)</text>
      <rect fill="none" x="314.9125" width="313.8" height="52.6" y="522.4" clip-path="url(#clipPath2)"/>
    </g>
    <g fill="rgb(255,153,0)" text-rendering="geometricPrecision" shape-rendering="geometricPrecision" transform="matrix(1,0,0,1,11,-4)" stroke="rgb(255,153,0)">
      <rect x="323" width="515.8" height="85.4" y="795" clip-path="url(#clipPath2)" stroke="none"/>
    </g>
    <g text-rendering="geometricPrecision" stroke-miterlimit="1.45" shape-rendering="geometricPrecision" font-family="sans-serif" transform="matrix(1,0,0,1,11,-4)" stroke-linecap="butt">
      <text x="330.9537" xml:space="preserve" y="820.3621" clip-path="url(#clipPath2)" stroke="none">fit model:</text>
      <text x="330.9537" xml:space="preserve" y="835.0633" clip-path="url(#clipPath2)" stroke="none">- linear mixed model (lme4?)</text>
      <text x="330.9537" xml:space="preserve" y="849.7645" clip-path="url(#clipPath2)" stroke="none">- dependent variable: log of stock change</text>
      <text x="330.9537" xml:space="preserve" y="864.4656" clip-path="url(#clipPath2)" stroke="none">- independent variables: commodities, countries, years, log of (Production + Imports - Exports)</text>
      <rect fill="none" x="323" width="515.8" height="85.4" y="795" clip-path="url(#clipPath2)"/>
    </g>
    <g fill="rgb(255,153,0)" text-rendering="geometricPrecision" shape-rendering="geometricPrecision" transform="matrix(1,0,0,1,11,-4)" stroke="rgb(255,153,0)">
      <rect x="377.56" width="406.68" height="52.6" y="915" clip-path="url(#clipPath2)" stroke="none"/>
    </g>
    <g text-rendering="geometricPrecision" stroke-miterlimit="1.45" shape-rendering="geometricPrecision" font-family="sans-serif" transform="matrix(1,0,0,1,11,-4)" stroke-linecap="butt">
      <text x="421.481" xml:space="preserve" y="931.3127" clip-path="url(#clipPath2)" stroke="none">resulting coefficient:</text>
      <text x="421.481" xml:space="preserve" y="946.0139" clip-path="url(#clipPath2)" stroke="none">- no strong relationship can be identified between stocks </text>
      <text x="421.481" xml:space="preserve" y="960.715" clip-path="url(#clipPath2)" stroke="none">  and current exogenous data (production, imports,  exports)</text>
      <rect fill="none" x="377.56" width="406.68" height="52.6" y="915" clip-path="url(#clipPath2)"/>
    </g>
    <g fill="white" text-rendering="geometricPrecision" shape-rendering="geometricPrecision" transform="matrix(1,0,0,1,11,-4)" stroke="white">
      <rect x="53.6" width="239.4" height="323" y="644.6" clip-path="url(#clipPath2)" stroke="none"/>
    </g>
    <g text-rendering="geometricPrecision" stroke-miterlimit="1.45" shape-rendering="geometricPrecision" font-family="sans-serif" transform="matrix(1,0,0,1,11,-4)" stroke-linecap="butt">
      <text x="64.9133" xml:space="preserve" y="796.1127" clip-path="url(#clipPath2)" stroke="none">Previous methodology:</text>
      <text x="64.9133" xml:space="preserve" y="810.8138" clip-path="url(#clipPath2)" stroke="none">- use information from FBS for USA</text>
      <text x="64.9133" xml:space="preserve" y="825.515" clip-path="url(#clipPath2)" stroke="none">- apply to SUA level data for all countries</text>
      <rect fill="none" x="53.6" width="239.4" height="323" y="644.6" clip-path="url(#clipPath2)"/>
      <path fill="none" d="M472.8125 132 L553.8125 132" clip-path="url(#clipPath2)"/>
      <path d="M561.8125 132 L549.8125 127 L552.8125 132 L549.8125 137 Z" clip-path="url(#clipPath2)" stroke="none"/>
      <text x="505.9775" xml:space="preserve" y="159.3633" clip-path="url(#clipPath2)" stroke="none">filter</text>
      <text x="483.6357" xml:space="preserve" y="174.0645" clip-path="url(#clipPath2)" stroke="none">commodities</text>
      <path fill="none" d="M676.8125 132 L729.0125 132" clip-path="url(#clipPath2)"/>
      <path d="M737.0125 132 L725.0125 127 L728.0125 132 L725.0125 137 Z" clip-path="url(#clipPath2)" stroke="none"/>
      <text x="695.5775" xml:space="preserve" y="159.3633" clip-path="url(#clipPath2)" stroke="none">filter</text>
      <text x="694.2386" xml:space="preserve" y="174.0645" clip-path="url(#clipPath2)" stroke="none">flags</text>
      <path fill="none" d="M238.1125 132 L288.8125 132" clip-path="url(#clipPath2)"/>
      <path d="M296.8125 132 L284.8125 127 L287.8125 132 L284.8125 137 Z" clip-path="url(#clipPath2)" stroke="none"/>
      <text x="256.6275" xml:space="preserve" y="159.3633" clip-path="url(#clipPath2)" stroke="none">filter</text>
      <text x="243.9508" xml:space="preserve" y="174.0645" clip-path="url(#clipPath2)" stroke="none">variables</text>
      <path fill="none" d="M803.7125 187.5 L803.7125 243.8 L546.5125 243.8" clip-path="url(#clipPath2)"/>
      <path d="M538.5125 243.8 L550.5125 248.8 L547.5125 243.8 L550.5125 238.8 Z" clip-path="url(#clipPath2)" stroke="none"/>
      <path fill="none" d="M471.8125 270.1 L471.8125 309.85" clip-path="url(#clipPath2)"/>
      <path d="M471.8125 317.85 L476.8125 305.85 L471.8125 308.85 L466.8125 305.85 Z" clip-path="url(#clipPath2)" stroke="none"/>
      <path fill="none" d="M445.1566 370.45 L380.5631 434.1813" clip-path="url(#clipPath2)"/>
      <path d="M374.8683 439.8 L386.9221 434.9311 L381.2749 433.4789 L379.8987 427.8127 Z" clip-path="url(#clipPath2)" stroke="none"/>
      <text x="347.6896" xml:space="preserve" y="405.8211" clip-path="url(#clipPath2)" stroke="none">calculate</text>
      <path fill="none" d="M507.6555 370.45 L595.7195 435.0673" clip-path="url(#clipPath2)"/>
      <path d="M602.1694 439.8 L595.4524 428.6698 L594.9132 434.4757 L589.5366 436.7322 Z" clip-path="url(#clipPath2)" stroke="none"/>
      <text x="489.8558" xml:space="preserve" y="416.6887" clip-path="url(#clipPath2)" stroke="none">calculate</text>
      <path fill="none" d="M471.8125 370.45 L471.8125 514.4" clip-path="url(#clipPath2)"/>
      <path d="M471.8125 522.4 L476.8125 510.4 L471.8125 513.4 L466.8125 510.4 Z" clip-path="url(#clipPath2)" stroke="none"/>
      <path fill="none" d="M387.567 492.4 L425.8066 517.955" clip-path="url(#clipPath2)"/>
      <path d="M432.458 522.4 L425.259 511.5753 L424.9752 517.3994 L419.7027 519.8896 Z" clip-path="url(#clipPath2)" stroke="none"/>
      <path fill="none" d="M585.0941 492.4 L531.8949 518.8395" clip-path="url(#clipPath2)"/>
      <path d="M524.7309 522.4 L537.7022 521.5368 L532.7904 518.3945 L533.2516 512.5818 Z" clip-path="url(#clipPath2)" stroke="none"/>
      <path fill="none" d="M487.1157 575 L533.7733 655.1854" clip-path="url(#clipPath2)"/>
      <path d="M537.7968 662.1 L536.0833 649.2134 L533.2704 654.321 L527.4399 654.2427 Z" clip-path="url(#clipPath2)" stroke="none"/>
      <text x="469.9549" xml:space="preserve" y="623.6325" clip-path="url(#clipPath2)" stroke="none">log</text>
      <path fill="none" d="M457.9871 575 L415.9228 655.0188" clip-path="url(#clipPath2)"/>
      <path d="M412.2004 662.1 L422.2098 653.8047 L416.3882 654.1336 L413.3583 649.1517 Z" clip-path="url(#clipPath2)" stroke="none"/>
      <text x="393.1944" xml:space="preserve" y="623.2639" clip-path="url(#clipPath2)" stroke="none">log</text>
      <path fill="none" d="M527.8553 575 L706.215 658.7014" clip-path="url(#clipPath2)"/>
      <path d="M713.4572 662.1 L704.7181 652.4756 L705.3098 658.2766 L700.4698 661.5284 Z" clip-path="url(#clipPath2)" stroke="none"/>
      <text x="566.9449" xml:space="preserve" y="634.9547" clip-path="url(#clipPath2)" stroke="none">log</text>
      <path fill="none" d="M736.2771 714.7 L641.1124 790.0345" clip-path="url(#clipPath2)"/>
      <path d="M634.8398 795 L647.352 791.4722 L641.8964 789.4139 L641.1452 783.6315 Z" clip-path="url(#clipPath2)" stroke="none"/>
      <text x="622.0646" xml:space="preserve" y="738.6509" clip-path="url(#clipPath2)" stroke="none">currently</text>
      <text x="625.7209" xml:space="preserve" y="753.3521" clip-path="url(#clipPath2)" stroke="none">applied</text>
      <text x="625.0588" xml:space="preserve" y="768.0532" clip-path="url(#clipPath2)" stroke="none">method</text>
      <path fill="none" stroke-dasharray="6,2" d="M557.9971 714.7 L571.4847 787.1352" clip-path="url(#clipPath2)"/>
      <path stroke-dasharray="6,2" d="M572.9492 795 L575.668 782.2875 L571.3017 786.1521 L565.837 784.118 Z" clip-path="url(#clipPath2)" stroke="none"/>
      <text x="507.2749" xml:space="preserve" y="752.2133" clip-path="url(#clipPath2)" stroke="none">alternative</text>
      <text x="514.9448" xml:space="preserve" y="766.9144" clip-path="url(#clipPath2)" stroke="none">method</text>
      <path fill="none" d="M430.5278 714.7 L522.5053 789.9349" clip-path="url(#clipPath2)"/>
      <path d="M528.6976 795 L522.5749 783.5322 L521.7313 789.3018 L516.2435 791.2725 Z" clip-path="url(#clipPath2)" stroke="none"/>
      <text x="407.7137" xml:space="preserve" y="755.3594" clip-path="url(#clipPath2)" stroke="none">dependent</text>
      <text x="415.0643" xml:space="preserve" y="770.0606" clip-path="url(#clipPath2)" stroke="none">variable</text>
      <path fill="none" d="M580.9 880.4 L580.9 907" clip-path="url(#clipPath2)"/>
      <path d="M580.9 915 L585.9 903 L580.9 906 L575.9 903 Z" clip-path="url(#clipPath2)" stroke="none"/>
    </g>
  </g>
</svg>
