<?xml version="1.0" encoding="UTF-8"?><svg xmlns="http://www.w3.org/2000/svg" xmlns:xlink="http://www.w3.org/1999/xlink" fill-opacity="1" color-rendering="auto" color-interpolation="auto" text-rendering="auto" stroke="black" stroke-linecap="square" width="541" stroke-miterlimit="10" shape-rendering="auto" stroke-opacity="1" fill="black" stroke-dasharray="none" font-weight="normal" stroke-width="1" height="1166" font-family="'Dialog'" font-style="normal" stroke-linejoin="miter" font-size="12px" stroke-dashoffset="0" image-rendering="auto">
  <!--Generated by ySVG 2.5-->
  <defs id="genericDefs"/>
  <g>
    <defs id="defs1">
      <clipPath clipPathUnits="userSpaceOnUse" id="clipPath1">
        <path d="M0 0 L541 0 L541 1166 L0 1166 L0 0 Z"/>
      </clipPath>
      <clipPath clipPathUnits="userSpaceOnUse" id="clipPath2">
        <path d="M37 4 L578 4 L578 1170 L37 1170 L37 4 Z"/>
      </clipPath>
      <clipPath clipPathUnits="userSpaceOnUse" id="clipPath3">
        <path d="M210.2186 -18.2429 L210.2186 522.7571 L-955.7814 522.7571 L-955.7814 -18.2429 L210.2186 -18.2429 Z"/>
      </clipPath>
      <clipPath clipPathUnits="userSpaceOnUse" id="clipPath4">
        <path d="M468.4275 -18.2429 L468.4275 522.7571 L-697.5725 522.7571 L-697.5725 -18.2429 L468.4275 -18.2429 Z"/>
      </clipPath>
      <clipPath clipPathUnits="userSpaceOnUse" id="clipPath5">
        <path d="M969.9291 -18.2429 L969.9291 522.7571 L-196.0709 522.7571 L-196.0709 -18.2429 L969.9291 -18.2429 Z"/>
      </clipPath>
    </defs>
    <g fill="white" text-rendering="geometricPrecision" shape-rendering="geometricPrecision" transform="translate(-37,-4)" stroke="white">
      <rect x="37" width="541" height="1166" y="4" clip-path="url(#clipPath2)" stroke="none"/>
    </g>
    <g fill="rgb(236,245,255)" text-rendering="geometricPrecision" shape-rendering="geometricPrecision" transform="matrix(1,0,0,1,-37,-4)" stroke="rgb(236,245,255)">
      <path d="M52.2429 19.9 L52.2429 49.9 L562.5801 49.9 L562.5801 19.9 Z" stroke="none" clip-path="url(#clipPath2)"/>
      <rect x="52.2429" width="510.3372" height="1104.8551" y="49.9" clip-path="url(#clipPath2)" stroke="none"/>
      <line clip-path="url(#clipPath2)" fill="rgb(113,146,178)" x1="76.2429" x2="562.5802" y1="49.9" y2="49.9" stroke="none"/>
      <rect x="52.2429" y="49.9" clip-path="url(#clipPath2)" fill="rgb(196,215,237)" width="24" height="242.6" stroke="none"/>
      <rect x="76.2429" y="49.9" clip-path="url(#clipPath2)" fill="rgb(196,215,237)" width="486.3372" height="242.6" stroke="none"/>
      <rect x="52.2429" y="292.5" clip-path="url(#clipPath2)" fill="rgb(171,200,226)" width="24" height="265.1343" stroke="none"/>
      <rect x="76.2429" y="292.5" clip-path="url(#clipPath2)" fill="rgb(171,200,226)" width="486.3372" height="265.1343" stroke="none"/>
      <rect x="52.2429" y="557.6343" clip-path="url(#clipPath2)" fill="rgb(196,215,237)" width="24" height="597.1207" stroke="none"/>
      <rect x="76.2429" y="557.6343" clip-path="url(#clipPath2)" fill="rgb(196,215,237)" width="486.3372" height="597.1207" stroke="none"/>
    </g>
    <g text-rendering="geometricPrecision" stroke-miterlimit="1.45" shape-rendering="geometricPrecision" transform="matrix(1,0,0,1,-37,-4)" stroke-linecap="butt">
      <rect fill="none" x="52.2429" width="510.3372" height="1134.8551" y="19.9" clip-path="url(#clipPath2)"/>
      <rect fill="none" x="76.2429" width="486.3372" height="1104.8551" y="49.9" clip-path="url(#clipPath2)"/>
      <rect fill="none" x="52.2429" width="510.3372" height="242.6" y="49.9" clip-path="url(#clipPath2)"/>
      <rect fill="none" x="52.2429" width="510.3372" height="265.1343" y="292.5" clip-path="url(#clipPath2)"/>
      <rect fill="none" x="52.2429" width="510.3372" height="597.1207" y="557.6343" clip-path="url(#clipPath2)"/>
    </g>
    <g font-size="15px" stroke-linecap="butt" transform="matrix(1,0,0,1,-37,-4)" text-rendering="geometricPrecision" font-family="sans-serif" shape-rendering="geometricPrecision" stroke-miterlimit="1.45">
      <text x="265.312" xml:space="preserve" y="40.9806" clip-path="url(#clipPath2)" stroke="none">faoswsStock</text>
    </g>
    <g text-rendering="geometricPrecision" stroke-miterlimit="1.45" shape-rendering="geometricPrecision" font-family="sans-serif" transform="matrix(-0,-1,1,-0,18.2429,210.2186)" stroke-linecap="butt">
      <text x="2" xml:space="preserve" y="14.0645" clip-path="url(#clipPath3)" stroke="none">Data Extraction</text>
    </g>
    <g text-rendering="geometricPrecision" stroke-miterlimit="1.45" shape-rendering="geometricPrecision" font-family="sans-serif" transform="matrix(-0,-1,1,-0,18.2429,468.4275)" stroke-linecap="butt">
      <text x="2" xml:space="preserve" y="14.0645" clip-path="url(#clipPath4)" stroke="none">Data Preparation</text>
    </g>
    <g text-rendering="geometricPrecision" stroke-miterlimit="1.45" shape-rendering="geometricPrecision" font-family="sans-serif" transform="matrix(-0,-1,1,-0,18.2429,969.9291)" stroke-linecap="butt">
      <text x="2" xml:space="preserve" y="14.0645" clip-path="url(#clipPath5)" stroke="none">Computing delta stocks and opening stocks</text>
    </g>
    <g fill="rgb(153,204,255)" text-rendering="geometricPrecision" shape-rendering="geometricPrecision" transform="matrix(1,0,0,1,-37,-4)" stroke="rgb(153,204,255)">
      <rect x="241.3328" width="115" height="74.7936" y="202.6899" clip-path="url(#clipPath2)" stroke="none"/>
    </g>
    <g text-rendering="geometricPrecision" stroke-miterlimit="1.45" shape-rendering="geometricPrecision" font-family="sans-serif" transform="matrix(1,0,0,1,-37,-4)" stroke-linecap="butt">
      <text x="260.1462" xml:space="preserve" y="222.7488" clip-path="url(#clipPath2)" stroke="none">Commodities:</text>
      <text x="260.1462" xml:space="preserve" y="237.45" clip-path="url(#clipPath2)" stroke="none">- cereals</text>
      <text x="260.1462" xml:space="preserve" y="252.1512" clip-path="url(#clipPath2)" stroke="none">- pulses</text>
      <text x="260.1462" xml:space="preserve" y="266.8523" clip-path="url(#clipPath2)" stroke="none">- refined sugar</text>
      <rect fill="none" x="241.3328" width="115" height="74.7936" y="202.6899" clip-path="url(#clipPath2)"/>
    </g>
    <g fill="rgb(153,204,255)" text-rendering="geometricPrecision" shape-rendering="geometricPrecision" transform="matrix(1,0,0,1,-37,-4)" stroke="rgb(153,204,255)">
      <rect x="92.7624" width="223.7072" height="111" y="68.5623" clip-path="url(#clipPath2)" stroke="none"/>
    </g>
    <g text-rendering="geometricPrecision" stroke-miterlimit="1.45" shape-rendering="geometricPrecision" font-family="sans-serif" transform="matrix(1,0,0,1,-37,-4)" stroke-linecap="butt">
      <text x="105.2264" xml:space="preserve" y="99.3739" clip-path="url(#clipPath2)" stroke="none">agriculture:aproduction</text>
      <text x="105.2264" xml:space="preserve" y="114.075" clip-path="url(#clipPath2)" stroke="none">- time: 1998/99-2014</text>
      <text x="105.2264" xml:space="preserve" y="128.7762" clip-path="url(#clipPath2)" stroke="none">- all countries</text>
      <text x="105.2264" xml:space="preserve" y="143.4774" clip-path="url(#clipPath2)" stroke="none">- Stocks: measuredElement 5071</text>
      <text x="105.2264" xml:space="preserve" y="158.1786" clip-path="url(#clipPath2)" stroke="none">- Production: measuredElement 5510</text>
      <rect fill="none" x="92.7624" width="223.7072" height="111" y="68.5623" clip-path="url(#clipPath2)"/>
    </g>
    <g fill="rgb(153,204,255)" text-rendering="geometricPrecision" shape-rendering="geometricPrecision" transform="matrix(1,0,0,1,-37,-4)" stroke="rgb(153,204,255)">
      <rect x="330.8862" width="207.7338" height="111" y="69.1579" clip-path="url(#clipPath2)" stroke="none"/>
    </g>
    <g text-rendering="geometricPrecision" stroke-miterlimit="1.45" shape-rendering="geometricPrecision" font-family="sans-serif" transform="matrix(1,0,0,1,-37,-4)" stroke-linecap="butt">
      <text x="343.7072" xml:space="preserve" y="99.9695" clip-path="url(#clipPath2)" stroke="none">trade:total_trade</text>
      <text x="343.7072" xml:space="preserve" y="114.6706" clip-path="url(#clipPath2)" stroke="none">- time: 1998-2014</text>
      <text x="343.7072" xml:space="preserve" y="129.3718" clip-path="url(#clipPath2)" stroke="none">- all countries</text>
      <text x="343.7072" xml:space="preserve" y="144.073" clip-path="url(#clipPath2)" stroke="none">- Imports: measuredElement 5610</text>
      <text x="343.7072" xml:space="preserve" y="158.7741" clip-path="url(#clipPath2)" stroke="none">- Exports: measuredElement 5910</text>
      <rect fill="none" x="330.8862" width="207.7338" height="111" y="69.1579" clip-path="url(#clipPath2)"/>
    </g>
    <g fill="rgb(153,204,255)" text-rendering="geometricPrecision" shape-rendering="geometricPrecision" transform="matrix(1,0,0,1,-37,-4)" stroke="rgb(153,204,255)">
      <rect x="311.8338" width="187.7096" height="70.7032" y="716.1152" clip-path="url(#clipPath2)" stroke="none"/>
    </g>
    <g text-rendering="geometricPrecision" stroke-miterlimit="1.45" shape-rendering="geometricPrecision" font-family="sans-serif" transform="matrix(1,0,0,1,-37,-4)" stroke-linecap="butt">
      <text x="320.3292" xml:space="preserve" y="741.4794" clip-path="url(#clipPath2)" stroke="none">Coefficients from AMIS Analysis</text>
      <text x="320.3292" xml:space="preserve" y="756.1806" clip-path="url(#clipPath2)" stroke="none">- cereals</text>
      <text x="320.3292" xml:space="preserve" y="770.8818" clip-path="url(#clipPath2)" stroke="none">- pulses</text>
      <rect fill="none" x="311.8338" width="187.7096" height="70.7032" y="716.1152" clip-path="url(#clipPath2)"/>
    </g>
    <g fill="rgb(153,204,255)" text-rendering="geometricPrecision" shape-rendering="geometricPrecision" transform="matrix(1,0,0,1,-37,-4)" stroke="rgb(153,204,255)">
      <rect x="306.8253" width="245.2138" height="52.6" y="648.0548" clip-path="url(#clipPath2)" stroke="none"/>
    </g>
    <g text-rendering="geometricPrecision" stroke-miterlimit="1.45" shape-rendering="geometricPrecision" font-family="sans-serif" transform="matrix(1,0,0,1,-37,-4)" stroke-linecap="butt">
      <text x="324.7369" xml:space="preserve" y="671.7181" clip-path="url(#clipPath2)" stroke="none">Coefficients from F.O. LICHTS analysis</text>
      <text x="324.7369" xml:space="preserve" y="686.4193" clip-path="url(#clipPath2)" stroke="none">- refined sugar</text>
      <rect fill="none" x="306.8253" width="245.2138" height="52.6" y="648.0548" clip-path="url(#clipPath2)"/>
    </g>
    <g fill="rgb(153,204,255)" text-rendering="geometricPrecision" shape-rendering="geometricPrecision" transform="matrix(1,0,0,1,-37,-4)" stroke="rgb(153,204,255)">
      <rect x="104.8185" width="172.8011" height="52.6" y="321.8383" clip-path="url(#clipPath2)" stroke="none"/>
    </g>
    <g text-rendering="geometricPrecision" stroke-miterlimit="1.45" shape-rendering="geometricPrecision" font-family="sans-serif" transform="matrix(1,0,0,1,-37,-4)" stroke-linecap="butt">
      <text x="134.1868" xml:space="preserve" y="345.5016" clip-path="url(#clipPath2)" stroke="none">Calculate total supply</text>
      <text x="134.1868" xml:space="preserve" y="360.2028" clip-path="url(#clipPath2)" stroke="none">(PROD + IMP - EXP)</text>
      <rect fill="none" x="104.8185" width="172.8011" height="52.6" y="321.8383" clip-path="url(#clipPath2)"/>
    </g>
    <g fill="rgb(153,204,255)" text-rendering="geometricPrecision" shape-rendering="geometricPrecision" transform="matrix(1,0,0,1,-37,-4)" stroke="rgb(153,204,255)">
      <rect x="109.4706" width="172.8011" height="52.6" y="396.6968" clip-path="url(#clipPath2)" stroke="none"/>
    </g>
    <g text-rendering="geometricPrecision" stroke-miterlimit="1.45" shape-rendering="geometricPrecision" font-family="sans-serif" transform="matrix(1,0,0,1,-37,-4)" stroke-linecap="butt">
      <text x="124.8291" xml:space="preserve" y="420.3601" clip-path="url(#clipPath2)" stroke="none">Compute delta total supply</text>
      <text x="124.8291" xml:space="preserve" y="435.0612" clip-path="url(#clipPath2)" stroke="none">(Supply_t - Supply_t-1)</text>
      <rect fill="none" x="109.4706" width="172.8011" height="52.6" y="396.6968" clip-path="url(#clipPath2)"/>
    </g>
    <g fill="rgb(153,204,255)" text-rendering="geometricPrecision" shape-rendering="geometricPrecision" transform="matrix(1,0,0,1,-37,-4)" stroke="rgb(153,204,255)">
      <rect x="312.133" width="172.8011" height="52.6" y="576.1447" clip-path="url(#clipPath2)" stroke="none"/>
    </g>
    <g text-rendering="geometricPrecision" stroke-miterlimit="1.45" shape-rendering="geometricPrecision" font-family="sans-serif" transform="matrix(1,0,0,1,-37,-4)" stroke-linecap="butt">
      <text x="337.5843" xml:space="preserve" y="599.808" clip-path="url(#clipPath2)" stroke="none">"Income" Classification</text>
      <text x="337.5843" xml:space="preserve" y="614.5092" clip-path="url(#clipPath2)" stroke="none">- by country</text>
      <rect fill="none" x="312.133" width="172.8011" height="52.6" y="576.1447" clip-path="url(#clipPath2)"/>
    </g>
    <g fill="rgb(153,204,255)" text-rendering="geometricPrecision" shape-rendering="geometricPrecision" transform="matrix(1,0,0,1,-37,-4)" stroke="rgb(153,204,255)">
      <rect x="112.5868" width="172.8011" height="52.6" y="476.2489" clip-path="url(#clipPath2)" stroke="none"/>
    </g>
    <g text-rendering="geometricPrecision" stroke-miterlimit="1.45" shape-rendering="geometricPrecision" font-family="sans-serif" transform="matrix(1,0,0,1,-37,-4)" stroke-linecap="butt">
      <text x="147.961" xml:space="preserve" y="507.2628" clip-path="url(#clipPath2)" stroke="none">Data for Imputation</text>
      <rect fill="none" x="112.5868" width="172.8011" height="52.6" y="476.2489" clip-path="url(#clipPath2)"/>
    </g>
    <g fill="rgb(153,204,255)" text-rendering="geometricPrecision" shape-rendering="geometricPrecision" transform="matrix(1,0,0,1,-37,-4)" stroke="rgb(153,204,255)">
      <rect x="103.2285" width="172.8011" height="52.6" y="648.5165" clip-path="url(#clipPath2)" stroke="none"/>
    </g>
    <g text-rendering="geometricPrecision" stroke-miterlimit="1.45" shape-rendering="geometricPrecision" font-family="sans-serif" transform="matrix(1,0,0,1,-37,-4)" stroke-linecap="butt">
      <text x="142.9386" xml:space="preserve" y="679.5303" clip-path="url(#clipPath2)" stroke="none">Apply coefficients</text>
      <rect fill="none" x="103.2285" width="172.8011" height="52.6" y="648.5165" clip-path="url(#clipPath2)"/>
    </g>
    <g fill="rgb(153,204,255)" text-rendering="geometricPrecision" shape-rendering="geometricPrecision" transform="matrix(1,0,0,1,-37,-4)" stroke="rgb(153,204,255)">
      <rect x="117.8729" width="172.8011" height="52.6" y="785.6872" clip-path="url(#clipPath2)" stroke="none"/>
    </g>
    <g text-rendering="geometricPrecision" stroke-miterlimit="1.45" shape-rendering="geometricPrecision" font-family="sans-serif" transform="matrix(1,0,0,1,-37,-4)" stroke-linecap="butt">
      <text x="135.915" xml:space="preserve" y="816.7011" clip-path="url(#clipPath2)" stroke="none">Estimates for delta stocks</text>
      <rect fill="none" x="117.8729" width="172.8011" height="52.6" y="785.6872" clip-path="url(#clipPath2)"/>
    </g>
    <g fill="rgb(204,255,204)" text-rendering="geometricPrecision" shape-rendering="geometricPrecision" transform="matrix(1,0,0,1,-37,-4)" stroke="rgb(204,255,204)">
      <rect x="135.8239" width="172.8011" height="52.6" y="905.7242" clip-path="url(#clipPath2)" stroke="none"/>
    </g>
    <g text-rendering="geometricPrecision" stroke-miterlimit="1.45" shape-rendering="geometricPrecision" font-family="sans-serif" transform="matrix(1,0,0,1,-37,-4)" stroke-linecap="butt">
      <text x="155.5184" xml:space="preserve" y="929.3875" clip-path="url(#clipPath2)" stroke="none">Calculate opening stocks</text>
      <text x="155.5184" xml:space="preserve" y="944.0887" clip-path="url(#clipPath2)" stroke="none">- mesuredElement 5113</text>
      <rect fill="none" x="135.8239" width="172.8011" height="52.6" y="905.7242" clip-path="url(#clipPath2)"/>
    </g>
    <g fill="rgb(255,204,153)" text-rendering="geometricPrecision" shape-rendering="geometricPrecision" transform="matrix(1,0,0,1,-37,-4)" stroke="rgb(255,204,153)">
      <rect x="334.3753" width="172.8011" height="52.6" y="875.6098" clip-path="url(#clipPath2)" stroke="none"/>
    </g>
    <g text-rendering="geometricPrecision" stroke-miterlimit="1.45" shape-rendering="geometricPrecision" font-family="sans-serif" transform="matrix(1,0,0,1,-37,-4)" stroke-linecap="butt">
      <text x="366.0902" xml:space="preserve" y="899.2731" clip-path="url(#clipPath2)" stroke="none">if negative:</text>
      <text x="366.0902" xml:space="preserve" y="913.9743" clip-path="url(#clipPath2)" stroke="none">- modify delta stocks</text>
      <rect fill="none" x="334.3753" width="172.8011" height="52.6" y="875.6098" clip-path="url(#clipPath2)"/>
    </g>
    <g fill="rgb(153,204,255)" text-rendering="geometricPrecision" shape-rendering="geometricPrecision" transform="matrix(1,0,0,1,-37,-4)" stroke="rgb(153,204,255)">
      <rect x="139.0314" width="172.8011" height="52.6" y="993.9537" clip-path="url(#clipPath2)" stroke="none"/>
    </g>
    <g text-rendering="geometricPrecision" stroke-miterlimit="1.45" shape-rendering="geometricPrecision" font-family="sans-serif" transform="matrix(1,0,0,1,-37,-4)" stroke-linecap="butt">
      <text x="156.3938" xml:space="preserve" y="1024.9677" clip-path="url(#clipPath2)" stroke="none">filter non-protected values</text>
      <rect fill="none" x="139.0314" width="172.8011" height="52.6" y="993.9537" clip-path="url(#clipPath2)"/>
    </g>
    <g fill="rgb(153,204,255)" text-rendering="geometricPrecision" shape-rendering="geometricPrecision" transform="matrix(1,0,0,1,-37,-4)" stroke="rgb(153,204,255)">
      <rect x="142.8298" width="172.8011" height="52.6" y="1087.9011" clip-path="url(#clipPath2)" stroke="none"/>
    </g>
    <g text-rendering="geometricPrecision" stroke-miterlimit="1.45" shape-rendering="geometricPrecision" font-family="sans-serif" transform="matrix(1,0,0,1,-37,-4)" stroke-linecap="butt">
      <text x="179.868" xml:space="preserve" y="1118.9149" clip-path="url(#clipPath2)" stroke="none">Final imputed data</text>
      <rect fill="none" x="142.8298" width="172.8011" height="52.6" y="1087.9011" clip-path="url(#clipPath2)"/>
      <path fill="none" d="M191.1344 179.5472 L190.8002 183.4144 L191.239 195.0914 L193.2348 205.504 L196.7878 214.6521 L201.8978 222.5359 L208.5648 229.1552 L216.789 234.5101 L226.5703 238.6006 L233.4548 240.3165 L233.5541 240.3286" clip-path="url(#clipPath2)"/>
      <path d="M241.4067 241.8574 L230.5834 234.6563 L232.5726 240.1374 L228.6723 244.4719 Z" clip-path="url(#clipPath2)" stroke="none"/>
      <path fill="none" d="M421.8528 180.1531 L417.0772 189.9311 L410.8366 199.8001 L403.6943 208.6072 L395.6501 216.3524 L386.7042 223.0358 L376.8565 228.6573 L366.107 233.2169 L363.9839 233.8542" clip-path="url(#clipPath2)"/>
      <path d="M356.3218 236.1544 L369.2527 237.493 L364.9417 233.5667 L366.3774 227.9152 Z" clip-path="url(#clipPath2)" stroke="none"/>
      <path fill="none" d="M294.8989 277.5227 L292.189 287.2772 L288.4177 296.973 L283.8022 305.828 L278.3426 313.8423 L276.5123 315.9251 L276.4375 315.9914" clip-path="url(#clipPath2)"/>
      <path d="M271.0504 321.9058 L282.8275 316.4012 L277.1108 315.2521 L275.4345 309.6674 Z" clip-path="url(#clipPath2)" stroke="none"/>
      <path fill="none" d="M210.2049 374.4416 L210.5085 375.1199 L212.2597 384.4045 L211.9853 388.8043 L211.956 388.8999" clip-path="url(#clipPath2)"/>
      <path d="M210.7764 396.8125 L217.4912 385.6809 L212.1035 387.9109 L207.6005 384.2064 Z" clip-path="url(#clipPath2)" stroke="none"/>
      <path fill="none" d="M214.5103 449.3046 L215.6847 452.0985 L217.3173 461.9938 L216.7641 468.4703 L216.7327 468.5652" clip-path="url(#clipPath2)"/>
      <path d="M215.0206 476.3799 L222.4729 465.728 L216.9467 467.5884 L212.7046 463.5879 Z" clip-path="url(#clipPath2)" stroke="none"/>
      <path fill="none" d="M321.0152 628.7383 L293.8467 637.9536 L271.5432 645.8426" clip-path="url(#clipPath2)"/>
      <path d="M264.0012 648.5103 L276.9816 649.2225 L272.486 645.5091 L273.647 639.7949 Z" clip-path="url(#clipPath2)" stroke="none"/>
      <path fill="none" d="M306.7981 669.3254 L284.0312 669.8749" clip-path="url(#clipPath2)"/>
      <path d="M276.0335 670.0679 L288.1507 674.7769 L285.0309 669.8508 L287.9094 664.7798 Z" clip-path="url(#clipPath2)" stroke="none"/>
      <path fill="none" d="M311.8345 743.743 L289.1637 737.0873 L262.6872 726.0095 L237.2726 711.9384 L228.3897 705.714" clip-path="url(#clipPath2)"/>
      <path d="M221.8381 701.1232 L228.7963 712.1042 L229.2087 706.2878 L234.5348 703.9146 Z" clip-path="url(#clipPath2)" stroke="none"/>
      <path fill="none" d="M198.8324 528.8196 L198.7326 545.7291 L197.088 588.8337 L194.0534 631.8629 L193.1578 640.5579" clip-path="url(#clipPath2)"/>
      <path d="M192.3381 648.5157 L198.5413 637.0912 L193.2603 639.5631 L188.594 636.0666 Z" clip-path="url(#clipPath2)" stroke="none"/>
      <path fill="none" d="M214.9171 701.1438 L219.0096 706.3633 L223.6757 714.5361 L227.2701 722.8232 L229.7928 731.2247 L231.2439 739.7407 L231.6234 748.3711 L230.9312 757.1159 L229.1673 765.9751 L226.3318 774.9487 L224.6037 778.5057" clip-path="url(#clipPath2)"/>
      <path d="M221.1079 785.7015 L230.849 777.0928 L225.0407 777.6063 L221.8543 772.7229 Z" clip-path="url(#clipPath2)" stroke="none"/>
      <path fill="none" d="M230.973 838.2852 L231.2681 838.6306 L239.1387 852.7938 L243.2582 867.5179 L243.6265 882.803 L240.3027 898.3724 L240.2628 898.4642" clip-path="url(#clipPath2)"/>
      <path d="M237.1251 905.8231 L246.4311 896.7458 L240.6551 897.5443 L237.2324 892.8235 Z" clip-path="url(#clipPath2)" stroke="none"/>
      <path fill="none" d="M259.3123 958.31 L264.773 961.4551 L278.4102 967.6678 L291.7746 972.0816 L304.8661 974.6965 L317.6848 975.5126 L330.2307 974.5299 L342.5038 971.7484 L354.504 967.1679 L366.2314 960.7887 L377.6859 952.6106 L388.8676 942.6337 L396.6014 934.2853 L396.6631 934.2066" clip-path="url(#clipPath2)"/>
      <path d="M401.8985 928.1576 L390.2647 933.9589 L396.0086 934.9627 L397.826 940.5032 Z" clip-path="url(#clipPath2)" stroke="none"/>
      <path fill="none" d="M403.8439 875.6036 L401.4132 872.1301 L390.9069 859.2266 L379.8506 847.6473 L368.2442 837.3922 L356.0879 828.4614 L343.3815 820.8549 L330.1251 814.5726 L316.3187 809.6146 L301.9623 805.9808 L298.6008 805.46" clip-path="url(#clipPath2)"/>
      <path d="M290.6951 804.2351 L301.7881 811.0134 L299.589 805.6131 L303.3192 801.1313 Z" clip-path="url(#clipPath2)" stroke="none"/>
      <path fill="none" d="M241.5719 958.282 L244.106 964.3585 L245.8856 975.3371 L244.9111 986.3801 L244.8794 986.475" clip-path="url(#clipPath2)"/>
      <path d="M242.3524 994.0654 L250.8869 984.2591 L245.1953 985.5261 L241.3988 981.1004 Z" clip-path="url(#clipPath2)" stroke="none"/>
      <path fill="none" d="M245.5021 1046.5973 L248.8752 1054.5938 L250.8179 1066.2778 L249.8248 1078.0806 L249.0906 1080.3085" clip-path="url(#clipPath2)"/>
      <path d="M246.5865 1087.9065 L255.0913 1078.0746 L249.4036 1079.3588 L245.5938 1074.9445 Z" clip-path="url(#clipPath2)" stroke="none"/>
    </g>
  </g>
</svg>
