<?xml version="1.0" encoding="UTF-8"?><svg xmlns="http://www.w3.org/2000/svg" xmlns:xlink="http://www.w3.org/1999/xlink" fill-opacity="1" color-rendering="auto" color-interpolation="auto" text-rendering="auto" stroke="black" stroke-linecap="square" width="863" stroke-miterlimit="10" shape-rendering="auto" stroke-opacity="1" fill="black" stroke-dasharray="none" font-weight="normal" stroke-width="1" height="872" font-family="'Dialog'" font-style="normal" stroke-linejoin="miter" font-size="12px" stroke-dashoffset="0" image-rendering="auto">
  <!--Generated by ySVG 2.5-->
  <defs id="genericDefs"/>
  <g>
    <defs id="defs1">
      <clipPath clipPathUnits="userSpaceOnUse" id="clipPath1">
        <path d="M0 0 L863 0 L863 872 L0 872 L0 0 Z"/>
      </clipPath>
      <clipPath clipPathUnits="userSpaceOnUse" id="clipPath2">
        <path d="M-296 -191 L567 -191 L567 681 L-296 681 L-296 -191 Z"/>
      </clipPath>
      <clipPath clipPathUnits="userSpaceOnUse" id="clipPath3">
        <path d="M179.6709 -18.3672 L179.6709 844.6328 L-692.3291 844.6328 L-692.3291 -18.3672 L179.6709 -18.3672 Z"/>
      </clipPath>
      <clipPath clipPathUnits="userSpaceOnUse" id="clipPath4">
        <path d="M431.9619 -18.3672 L431.9619 844.6328 L-440.0381 844.6328 L-440.0381 -18.3672 L431.9619 -18.3672 Z"/>
      </clipPath>
      <clipPath clipPathUnits="userSpaceOnUse" id="clipPath5">
        <path d="M688.3828 -18.3672 L688.3828 844.6328 L-183.6172 844.6328 L-183.6172 -18.3672 L688.3828 -18.3672 Z"/>
      </clipPath>
      <clipPath clipPathUnits="userSpaceOnUse" id="clipPath6">
        <path d="M795.2227 -18.3672 L795.2227 844.6328 L-76.7773 844.6328 L-76.7773 -18.3672 L795.2227 -18.3672 Z"/>
      </clipPath>
    </defs>
    <g fill="white" text-rendering="geometricPrecision" shape-rendering="geometricPrecision" transform="translate(296,191)" stroke="white">
      <rect x="-296" width="863" height="872" y="-191" clip-path="url(#clipPath2)" stroke="none"/>
    </g>
    <g fill="rgb(236,245,255)" text-rendering="geometricPrecision" shape-rendering="geometricPrecision" transform="matrix(1,0,0,1,296,191)" stroke="rgb(236,245,255)">
      <path d="M-280.6328 -175.625 L-280.6328 -145.625 L551.2812 -145.625 L551.2812 -175.625 Z" stroke="none" clip-path="url(#clipPath2)"/>
      <rect x="-280.6328" width="831.9141" height="811.625" y="-145.625" clip-path="url(#clipPath2)" stroke="none"/>
      <rect x="-256.6328" y="-145.625" clip-path="url(#clipPath2)" fill="rgb(113,146,178)" width="87.6719" height="24" stroke="none"/>
      <rect x="-168.9609" y="-145.625" clip-path="url(#clipPath2)" fill="rgb(113,146,178)" width="273.3125" height="24" stroke="none"/>
      <rect x="104.3516" y="-145.625" clip-path="url(#clipPath2)" fill="rgb(113,146,178)" width="273.6875" height="24" stroke="none"/>
      <rect x="378.0391" y="-145.625" clip-path="url(#clipPath2)" fill="rgb(113,146,178)" width="173.2422" height="24" stroke="none"/>
      <rect x="-280.6328" y="-121.625" clip-path="url(#clipPath2)" fill="rgb(196,215,237)" width="24" height="179.25" stroke="none"/>
      <rect x="-256.6328" y="-121.625" clip-path="url(#clipPath2)" fill="rgb(196,215,237)" width="807.9141" height="179.25" stroke="none"/>
      <rect x="-280.6328" y="57.625" clip-path="url(#clipPath2)" fill="rgb(171,200,226)" width="24" height="308" stroke="none"/>
      <rect x="-256.6328" y="57.625" clip-path="url(#clipPath2)" fill="rgb(171,200,226)" width="807.9141" height="308" stroke="none"/>
      <rect x="-280.6328" y="365.625" clip-path="url(#clipPath2)" fill="rgb(196,215,237)" width="24" height="146.125" stroke="none"/>
      <rect x="-256.6328" y="365.625" clip-path="url(#clipPath2)" fill="rgb(196,215,237)" width="807.9141" height="146.125" stroke="none"/>
      <rect x="-280.6328" y="511.75" clip-path="url(#clipPath2)" fill="rgb(171,200,226)" width="24" height="154.25" stroke="none"/>
      <rect x="-256.6328" y="511.75" clip-path="url(#clipPath2)" fill="rgb(171,200,226)" width="807.9141" height="154.25" stroke="none"/>
    </g>
    <g text-rendering="geometricPrecision" stroke-miterlimit="1.45" shape-rendering="geometricPrecision" transform="matrix(1,0,0,1,296,191)" stroke-linecap="butt">
      <rect fill="none" x="-280.6328" width="831.9141" height="841.625" y="-175.625" clip-path="url(#clipPath2)"/>
      <rect fill="none" x="-256.6328" width="87.6719" height="811.625" y="-145.625" clip-path="url(#clipPath2)"/>
      <rect fill="none" x="-168.9609" width="273.3125" height="811.625" y="-145.625" clip-path="url(#clipPath2)"/>
      <rect fill="none" x="104.3516" width="273.6875" height="811.625" y="-145.625" clip-path="url(#clipPath2)"/>
      <rect fill="none" x="378.0391" width="173.2422" height="811.625" y="-145.625" clip-path="url(#clipPath2)"/>
      <rect fill="none" x="-280.6328" width="831.9141" height="179.25" y="-121.625" clip-path="url(#clipPath2)"/>
      <rect fill="none" x="-280.6328" width="831.9141" height="308" y="57.625" clip-path="url(#clipPath2)"/>
      <rect fill="none" x="-280.6328" width="831.9141" height="146.125" y="365.625" clip-path="url(#clipPath2)"/>
      <rect fill="none" x="-280.6328" width="831.9141" height="154.25" y="511.75" clip-path="url(#clipPath2)"/>
    </g>
    <g font-size="15px" stroke-linecap="butt" transform="matrix(1,0,0,1,296,191)" text-rendering="geometricPrecision" font-family="sans-serif" shape-rendering="geometricPrecision" stroke-miterlimit="1.45">
      <text x="-121.8584" xml:space="preserve" y="-154.5444" clip-path="url(#clipPath2)" stroke="none">SWS Trade Module - Simplified Time Requirement Estimation for Single Year</text>
    </g>
    <g text-rendering="geometricPrecision" stroke-miterlimit="1.45" shape-rendering="geometricPrecision" font-family="sans-serif" transform="matrix(-0,-1,1,-0,18.3672,179.6709)" stroke-linecap="butt">
      <text x="2" xml:space="preserve" y="14.0645" clip-path="url(#clipPath3)" stroke="none">Extract</text>
    </g>
    <g text-rendering="geometricPrecision" stroke-miterlimit="1.45" shape-rendering="geometricPrecision" font-family="sans-serif" transform="matrix(-0,-1,1,-0,18.3672,431.9619)" stroke-linecap="butt">
      <text x="2" xml:space="preserve" y="14.0645" clip-path="url(#clipPath4)" stroke="none">Transform</text>
    </g>
    <g text-rendering="geometricPrecision" stroke-miterlimit="1.45" shape-rendering="geometricPrecision" font-family="sans-serif" transform="matrix(1,0,0,1,296,191)" stroke-linecap="butt">
      <text x="-226.1299" xml:space="preserve" y="-128.5605" clip-path="url(#clipPath2)" stroke="none">Time</text>
      <text x="-61.9824" xml:space="preserve" y="-128.5605" clip-path="url(#clipPath2)" stroke="none">SWS Read</text>
      <text x="213.5215" xml:space="preserve" y="-128.5605" clip-path="url(#clipPath2)" stroke="none">R Process</text>
      <text x="435.6504" xml:space="preserve" y="-128.5605" clip-path="url(#clipPath2)" stroke="none">SWS Save</text>
    </g>
    <g text-rendering="geometricPrecision" stroke-miterlimit="1.45" shape-rendering="geometricPrecision" font-family="sans-serif" transform="matrix(-0,-1,1,-0,18.3672,688.3828)" stroke-linecap="butt">
      <text x="2" xml:space="preserve" y="14.0645" clip-path="url(#clipPath5)" stroke="none">Analytical Operations</text>
    </g>
    <g text-rendering="geometricPrecision" stroke-miterlimit="1.45" shape-rendering="geometricPrecision" font-family="sans-serif" transform="matrix(-0,-1,1,-0,18.3672,795.2227)" stroke-linecap="butt">
      <text x="2" xml:space="preserve" y="14.0645" clip-path="url(#clipPath6)" stroke="none">Load</text>
    </g>
    <g fill="rgb(153,204,255)" text-rendering="geometricPrecision" shape-rendering="geometricPrecision" transform="matrix(1,0,0,1,296,191)" stroke="rgb(153,204,255)">
      <rect x="-156.4609" width="238" height="44" y="0.7188" clip-path="url(#clipPath2)" stroke="none"/>
    </g>
    <g text-rendering="geometricPrecision" stroke-miterlimit="1.45" shape-rendering="geometricPrecision" font-family="sans-serif" transform="matrix(1,0,0,1,296,191)" stroke-linecap="butt">
      <text x="-93.1689" xml:space="preserve" y="27.4326" clip-path="url(#clipPath2)" stroke="none">tt_tariffline_unlogged</text>
      <rect fill="none" x="-156.4609" width="238" height="44" y="0.7188" clip-path="url(#clipPath2)"/>
    </g>
    <g fill="rgb(153,204,255)" text-rendering="geometricPrecision" shape-rendering="geometricPrecision" transform="matrix(1,0,0,1,296,191)" stroke="rgb(153,204,255)">
      <rect x="-156.4609" width="238" height="44" y="-54.875" clip-path="url(#clipPath2)" stroke="none"/>
    </g>
    <g text-rendering="geometricPrecision" stroke-miterlimit="1.45" shape-rendering="geometricPrecision" font-family="sans-serif" transform="matrix(1,0,0,1,296,191)" stroke-linecap="butt">
      <text x="-137.5332" xml:space="preserve" y="-28.1611" clip-path="url(#clipPath2)" stroke="none">ce_combinednomenclature_unlogged</text>
      <rect fill="none" x="-156.4609" width="238" height="44" y="-54.875" clip-path="url(#clipPath2)"/>
    </g>
    <g fill="rgb(153,204,255)" text-rendering="geometricPrecision" shape-rendering="geometricPrecision" transform="matrix(1,0,0,1,296,191)" stroke="rgb(153,204,255)">
      <rect x="-156.4609" width="238" height="44" y="-110.4688" clip-path="url(#clipPath2)" stroke="none"/>
    </g>
    <g text-rendering="geometricPrecision" stroke-miterlimit="1.45" shape-rendering="geometricPrecision" font-family="sans-serif" transform="matrix(1,0,0,1,296,191)" stroke-linecap="butt">
      <text x="-61.4697" xml:space="preserve" y="-83.7549" clip-path="url(#clipPath2)" stroke="none">hsfclmap</text>
      <rect fill="none" x="-156.4609" width="238" height="44" y="-110.4688" clip-path="url(#clipPath2)"/>
    </g>
    <g fill="rgb(153,204,255)" text-rendering="geometricPrecision" shape-rendering="geometricPrecision" transform="matrix(1,0,0,1,296,191)" stroke="rgb(153,204,255)">
      <rect x="126.8906" width="238" height="44" y="-110.4688" clip-path="url(#clipPath2)" stroke="none"/>
    </g>
    <g text-rendering="geometricPrecision" stroke-miterlimit="1.45" shape-rendering="geometricPrecision" font-family="sans-serif" transform="matrix(1,0,0,1,296,191)" stroke-linecap="butt">
      <text x="221.8818" xml:space="preserve" y="-83.7549" clip-path="url(#clipPath2)" stroke="none">hsfclmap</text>
      <rect fill="none" x="126.8906" width="238" height="44" y="-110.4688" clip-path="url(#clipPath2)"/>
    </g>
    <g fill="rgb(153,204,255)" text-rendering="geometricPrecision" shape-rendering="geometricPrecision" transform="matrix(1,0,0,1,296,191)" stroke="rgb(153,204,255)">
      <rect x="126.8906" width="238" height="44" y="-54.875" clip-path="url(#clipPath2)" stroke="none"/>
    </g>
    <g text-rendering="geometricPrecision" stroke-miterlimit="1.45" shape-rendering="geometricPrecision" font-family="sans-serif" transform="matrix(1,0,0,1,296,191)" stroke-linecap="butt">
      <text x="145.8184" xml:space="preserve" y="-28.1611" clip-path="url(#clipPath2)" stroke="none">ce_combinednomenclature_unlogged</text>
      <rect fill="none" x="126.8906" width="238" height="44" y="-54.875" clip-path="url(#clipPath2)"/>
    </g>
    <g fill="rgb(153,204,255)" text-rendering="geometricPrecision" shape-rendering="geometricPrecision" transform="matrix(1,0,0,1,296,191)" stroke="rgb(153,204,255)">
      <rect x="126.8906" width="238" height="44" y="0.7188" clip-path="url(#clipPath2)" stroke="none"/>
    </g>
    <g text-rendering="geometricPrecision" stroke-miterlimit="1.45" shape-rendering="geometricPrecision" font-family="sans-serif" transform="matrix(1,0,0,1,296,191)" stroke-linecap="butt">
      <text x="190.1826" xml:space="preserve" y="27.4326" clip-path="url(#clipPath2)" stroke="none">tt_tariffline_unlogged</text>
      <rect fill="none" x="126.8906" width="238" height="44" y="0.7188" clip-path="url(#clipPath2)"/>
    </g>
    <g fill="rgb(153,204,255)" text-rendering="geometricPrecision" shape-rendering="geometricPrecision" transform="matrix(1,0,0,1,296,191)" stroke="rgb(153,204,255)">
      <rect x="-244.4609" width="58" height="30" y="-103.4688" clip-path="url(#clipPath2)" stroke="none"/>
    </g>
    <g text-rendering="geometricPrecision" stroke-miterlimit="1.45" shape-rendering="geometricPrecision" font-family="sans-serif" transform="matrix(1,0,0,1,296,191)" stroke-linecap="butt">
      <text x="-230.1328" xml:space="preserve" y="-83.7549" clip-path="url(#clipPath2)" stroke="none">5 min</text>
      <rect fill="none" x="-244.4609" width="58" height="30" y="-103.4688" clip-path="url(#clipPath2)"/>
    </g>
    <g fill="rgb(153,204,255)" text-rendering="geometricPrecision" shape-rendering="geometricPrecision" transform="matrix(1,0,0,1,296,191)" stroke="rgb(153,204,255)">
      <rect x="-244.4609" width="58" height="30" y="-47.875" clip-path="url(#clipPath2)" stroke="none"/>
    </g>
    <g text-rendering="geometricPrecision" stroke-miterlimit="1.45" shape-rendering="geometricPrecision" font-family="sans-serif" transform="matrix(1,0,0,1,296,191)" stroke-linecap="butt">
      <text x="-233.4697" xml:space="preserve" y="-28.1611" clip-path="url(#clipPath2)" stroke="none">15 min</text>
      <rect fill="none" x="-244.4609" width="58" height="30" y="-47.875" clip-path="url(#clipPath2)"/>
    </g>
    <g fill="rgb(153,204,255)" text-rendering="geometricPrecision" shape-rendering="geometricPrecision" transform="matrix(1,0,0,1,296,191)" stroke="rgb(153,204,255)">
      <rect x="-244.4609" width="58" height="30" y="7.7188" clip-path="url(#clipPath2)" stroke="none"/>
    </g>
    <g text-rendering="geometricPrecision" stroke-miterlimit="1.45" shape-rendering="geometricPrecision" font-family="sans-serif" transform="matrix(1,0,0,1,296,191)" stroke-linecap="butt">
      <text x="-233.4697" xml:space="preserve" y="27.4326" clip-path="url(#clipPath2)" stroke="none">25 min</text>
      <rect fill="none" x="-244.4609" width="58" height="30" y="7.7188" clip-path="url(#clipPath2)"/>
    </g>
    <g fill="rgb(153,204,255)" text-rendering="geometricPrecision" shape-rendering="geometricPrecision" transform="matrix(1,0,0,1,296,191)" stroke="rgb(153,204,255)">
      <rect x="126.8906" width="238" height="44" y="154.5312" clip-path="url(#clipPath2)" stroke="none"/>
    </g>
    <g text-rendering="geometricPrecision" stroke-miterlimit="1.45" shape-rendering="geometricPrecision" font-family="sans-serif" transform="matrix(1,0,0,1,296,191)" stroke-linecap="butt">
      <text x="221.8818" xml:space="preserve" y="181.2451" clip-path="url(#clipPath2)" stroke="none">hsfclmap</text>
      <rect fill="none" x="126.8906" width="238" height="44" y="154.5312" clip-path="url(#clipPath2)"/>
    </g>
    <g fill="rgb(153,204,255)" text-rendering="geometricPrecision" shape-rendering="geometricPrecision" transform="matrix(1,0,0,1,296,191)" stroke="rgb(153,204,255)">
      <rect x="126.8906" width="238" height="44" y="74.7188" clip-path="url(#clipPath2)" stroke="none"/>
    </g>
    <g text-rendering="geometricPrecision" stroke-miterlimit="1.45" shape-rendering="geometricPrecision" font-family="sans-serif" transform="matrix(1,0,0,1,296,191)" stroke-linecap="butt">
      <text x="145.8184" xml:space="preserve" y="101.4326" clip-path="url(#clipPath2)" stroke="none">ce_combinednomenclature_unlogged</text>
      <rect fill="none" x="126.8906" width="238" height="44" y="74.7188" clip-path="url(#clipPath2)"/>
    </g>
    <g fill="rgb(153,204,255)" text-rendering="geometricPrecision" shape-rendering="geometricPrecision" transform="matrix(1,0,0,1,296,191)" stroke="rgb(153,204,255)">
      <rect x="126.8906" width="238" height="44" y="302.1562" clip-path="url(#clipPath2)" stroke="none"/>
    </g>
    <g text-rendering="geometricPrecision" stroke-miterlimit="1.45" shape-rendering="geometricPrecision" font-family="sans-serif" transform="matrix(1,0,0,1,296,191)" stroke-linecap="butt">
      <text x="221.8818" xml:space="preserve" y="328.8701" clip-path="url(#clipPath2)" stroke="none">hsfclmap</text>
      <rect fill="none" x="126.8906" width="238" height="44" y="302.1562" clip-path="url(#clipPath2)"/>
    </g>
    <g fill="rgb(153,204,255)" text-rendering="geometricPrecision" shape-rendering="geometricPrecision" transform="matrix(1,0,0,1,296,191)" stroke="rgb(153,204,255)">
      <rect x="126.8906" width="238" height="44" y="222.3438" clip-path="url(#clipPath2)" stroke="none"/>
    </g>
    <g text-rendering="geometricPrecision" stroke-miterlimit="1.45" shape-rendering="geometricPrecision" font-family="sans-serif" transform="matrix(1,0,0,1,296,191)" stroke-linecap="butt">
      <text x="190.1826" xml:space="preserve" y="249.0576" clip-path="url(#clipPath2)" stroke="none">tt_tariffline_unlogged</text>
      <rect fill="none" x="126.8906" width="238" height="44" y="222.3438" clip-path="url(#clipPath2)"/>
    </g>
    <g fill="rgb(153,204,255)" text-rendering="geometricPrecision" shape-rendering="geometricPrecision" transform="matrix(1,0,0,1,296,191)" stroke="rgb(153,204,255)">
      <rect x="-244.4609" width="58" height="30" y="113.7188" clip-path="url(#clipPath2)" stroke="none"/>
    </g>
    <g text-rendering="geometricPrecision" stroke-miterlimit="1.45" shape-rendering="geometricPrecision" font-family="sans-serif" transform="matrix(1,0,0,1,296,191)" stroke-linecap="butt">
      <text x="-233.4697" xml:space="preserve" y="133.4326" clip-path="url(#clipPath2)" stroke="none">10 min</text>
      <rect fill="none" x="-244.4609" width="58" height="30" y="113.7188" clip-path="url(#clipPath2)"/>
    </g>
    <g fill="rgb(153,204,255)" text-rendering="geometricPrecision" shape-rendering="geometricPrecision" transform="matrix(1,0,0,1,296,191)" stroke="rgb(153,204,255)">
      <rect x="-244.4609" width="58" height="30" y="249.9688" clip-path="url(#clipPath2)" stroke="none"/>
    </g>
    <g text-rendering="geometricPrecision" stroke-miterlimit="1.45" shape-rendering="geometricPrecision" font-family="sans-serif" transform="matrix(1,0,0,1,296,191)" stroke-linecap="butt">
      <text x="-233.4697" xml:space="preserve" y="269.6826" clip-path="url(#clipPath2)" stroke="none">10 min</text>
      <rect fill="none" x="-244.4609" width="58" height="30" y="249.9688" clip-path="url(#clipPath2)"/>
    </g>
    <g fill="rgb(153,204,255)" text-rendering="geometricPrecision" shape-rendering="geometricPrecision" transform="matrix(1,0,0,1,296,191)" stroke="rgb(153,204,255)">
      <rect x="126.8906" width="238" height="44" y="530.5" clip-path="url(#clipPath2)" stroke="none"/>
    </g>
    <g text-rendering="geometricPrecision" stroke-miterlimit="1.45" shape-rendering="geometricPrecision" font-family="sans-serif" transform="matrix(1,0,0,1,296,191)" stroke-linecap="butt">
      <text x="134.1553" xml:space="preserve" y="557.2139" clip-path="url(#clipPath2)" stroke="none">ce_combinednomenclature_unlogged (fcl)</text>
      <rect fill="none" x="126.8906" width="238" height="44" y="530.5" clip-path="url(#clipPath2)"/>
    </g>
    <g fill="rgb(153,204,255)" text-rendering="geometricPrecision" shape-rendering="geometricPrecision" transform="matrix(1,0,0,1,296,191)" stroke="rgb(153,204,255)">
      <rect x="126.8906" width="238" height="44" y="604.5" clip-path="url(#clipPath2)" stroke="none"/>
    </g>
    <g text-rendering="geometricPrecision" stroke-miterlimit="1.45" shape-rendering="geometricPrecision" font-family="sans-serif" transform="matrix(1,0,0,1,296,191)" stroke-linecap="butt">
      <text x="178.5195" xml:space="preserve" y="631.2139" clip-path="url(#clipPath2)" stroke="none">tt_tariffline_unlogged (fcl)</text>
      <rect fill="none" x="126.8906" width="238" height="44" y="604.5" clip-path="url(#clipPath2)"/>
    </g>
    <g fill="rgb(153,204,255)" text-rendering="geometricPrecision" shape-rendering="geometricPrecision" transform="matrix(1,0,0,1,296,191)" stroke="rgb(153,204,255)">
      <rect x="394.8906" width="142" height="44" y="604.5" clip-path="url(#clipPath2)" stroke="none"/>
    </g>
    <g text-rendering="geometricPrecision" stroke-miterlimit="1.45" shape-rendering="geometricPrecision" font-family="sans-serif" transform="matrix(1,0,0,1,296,191)" stroke-linecap="butt">
      <text x="422.2002" xml:space="preserve" y="631.2139" clip-path="url(#clipPath2)" stroke="none">complete_tf_cpc</text>
      <rect fill="none" x="394.8906" width="142" height="44" y="604.5" clip-path="url(#clipPath2)"/>
    </g>
    <g fill="rgb(153,204,255)" text-rendering="geometricPrecision" shape-rendering="geometricPrecision" transform="matrix(1,0,0,1,296,191)" stroke="rgb(153,204,255)">
      <rect x="-244.4609" width="58" height="30" y="611.5" clip-path="url(#clipPath2)" stroke="none"/>
    </g>
    <g text-rendering="geometricPrecision" stroke-miterlimit="1.45" shape-rendering="geometricPrecision" font-family="sans-serif" transform="matrix(1,0,0,1,296,191)" stroke-linecap="butt">
      <text x="-233.4697" xml:space="preserve" y="631.2139" clip-path="url(#clipPath2)" stroke="none">30 min</text>
      <rect fill="none" x="-244.4609" width="58" height="30" y="611.5" clip-path="url(#clipPath2)"/>
    </g>
    <g fill="rgb(153,204,255)" text-rendering="geometricPrecision" shape-rendering="geometricPrecision" transform="matrix(1,0,0,1,296,191)" stroke="rgb(153,204,255)">
      <rect x="126.8906" width="238" height="44" y="382.8594" clip-path="url(#clipPath2)" stroke="none"/>
    </g>
    <g text-rendering="geometricPrecision" stroke-miterlimit="1.45" shape-rendering="geometricPrecision" font-family="sans-serif" transform="matrix(1,0,0,1,296,191)" stroke-linecap="butt">
      <text x="212.8877" xml:space="preserve" y="409.5732" clip-path="url(#clipPath2)" stroke="none">Mirror Trade</text>
      <rect fill="none" x="126.8906" width="238" height="44" y="382.8594" clip-path="url(#clipPath2)"/>
    </g>
    <g fill="rgb(153,204,255)" text-rendering="geometricPrecision" shape-rendering="geometricPrecision" transform="matrix(1,0,0,1,296,191)" stroke="rgb(153,204,255)">
      <rect x="126.8906" width="238" height="44" y="449.3594" clip-path="url(#clipPath2)" stroke="none"/>
    </g>
    <g text-rendering="geometricPrecision" stroke-miterlimit="1.45" shape-rendering="geometricPrecision" font-family="sans-serif" transform="matrix(1,0,0,1,296,191)" stroke-linecap="butt">
      <text x="201.2041" xml:space="preserve" y="476.0732" clip-path="url(#clipPath2)" stroke="none">Outlier Detection</text>
      <rect fill="none" x="126.8906" width="238" height="44" y="449.3594" clip-path="url(#clipPath2)"/>
    </g>
    <g fill="rgb(153,204,255)" text-rendering="geometricPrecision" shape-rendering="geometricPrecision" transform="matrix(1,0,0,1,296,191)" stroke="rgb(153,204,255)">
      <rect x="-244.4609" width="58" height="30" y="389.8594" clip-path="url(#clipPath2)" stroke="none"/>
    </g>
    <g text-rendering="geometricPrecision" stroke-miterlimit="1.45" shape-rendering="geometricPrecision" font-family="sans-serif" transform="matrix(1,0,0,1,296,191)" stroke-linecap="butt">
      <text x="-230.1328" xml:space="preserve" y="409.5732" clip-path="url(#clipPath2)" stroke="none">1 min</text>
      <rect fill="none" x="-244.4609" width="58" height="30" y="389.8594" clip-path="url(#clipPath2)"/>
    </g>
    <g fill="rgb(153,204,255)" text-rendering="geometricPrecision" shape-rendering="geometricPrecision" transform="matrix(1,0,0,1,296,191)" stroke="rgb(153,204,255)">
      <rect x="-244.4609" width="58" height="30" y="456.3594" clip-path="url(#clipPath2)" stroke="none"/>
    </g>
    <g text-rendering="geometricPrecision" stroke-miterlimit="1.45" shape-rendering="geometricPrecision" font-family="sans-serif" transform="matrix(1,0,0,1,296,191)" stroke-linecap="butt">
      <text x="-230.1328" xml:space="preserve" y="476.0732" clip-path="url(#clipPath2)" stroke="none">1 min</text>
      <rect fill="none" x="-244.4609" width="58" height="30" y="456.3594" clip-path="url(#clipPath2)"/>
      <path fill="none" d="M81.5391 -88.4688 L118.8906 -88.4688" clip-path="url(#clipPath2)"/>
      <path d="M126.8906 -88.4688 L114.8906 -93.4688 L117.8906 -88.4688 L114.8906 -83.4688 Z" clip-path="url(#clipPath2)" stroke="none"/>
      <path fill="none" d="M81.5391 -32.875 L118.8906 -32.875" clip-path="url(#clipPath2)"/>
      <path d="M126.8906 -32.875 L114.8906 -37.875 L117.8906 -32.875 L114.8906 -27.875 Z" clip-path="url(#clipPath2)" stroke="none"/>
      <path fill="none" d="M81.5391 22.7188 L118.8906 22.7188" clip-path="url(#clipPath2)"/>
      <path d="M126.8906 22.7188 L114.8906 17.7188 L117.8906 22.7188 L114.8906 27.7188 Z" clip-path="url(#clipPath2)" stroke="none"/>
      <path fill="none" d="M245.8906 118.7188 L245.8906 146.5312" clip-path="url(#clipPath2)"/>
      <path d="M245.8906 154.5312 L250.8906 142.5312 L245.8906 145.5312 L240.8906 142.5312 Z" clip-path="url(#clipPath2)" stroke="none"/>
      <text x="226.1943" xml:space="preserve" y="141.3389" clip-path="url(#clipPath2)" stroke="none">join hs to obtain fcl</text>
      <path fill="none" d="M245.8906 266.3438 L245.8906 294.1562" clip-path="url(#clipPath2)"/>
      <path d="M245.8906 302.1562 L250.8906 290.1562 L245.8906 293.1562 L240.8906 290.1562 Z" clip-path="url(#clipPath2)" stroke="none"/>
      <text x="226.1943" xml:space="preserve" y="292.5195" clip-path="url(#clipPath2)" stroke="none">join hs to obtain fcl</text>
      <path fill="none" d="M245.8906 574.5 L245.8906 596.5" clip-path="url(#clipPath2)"/>
      <path d="M245.8906 604.5 L250.8906 592.5 L245.8906 595.5 L240.8906 592.5 Z" clip-path="url(#clipPath2)" stroke="none"/>
      <text x="255.8691" xml:space="preserve" y="594.8633" clip-path="url(#clipPath2)" stroke="none">append</text>
      <path fill="none" d="M364.8906 626.5 L386.8906 626.5" clip-path="url(#clipPath2)"/>
      <path d="M394.8906 626.5 L382.8906 621.5 L385.8906 626.5 L382.8906 631.5 Z" clip-path="url(#clipPath2)" stroke="none"/>
    </g>
  </g>
</svg>
