<?xml version="1.0" encoding="UTF-8"?><svg xmlns="http://www.w3.org/2000/svg" xmlns:xlink="http://www.w3.org/1999/xlink" fill-opacity="1" color-rendering="auto" color-interpolation="auto" text-rendering="auto" stroke="black" stroke-linecap="square" width="769" stroke-miterlimit="10" shape-rendering="auto" stroke-opacity="1" fill="black" stroke-dasharray="none" font-weight="normal" stroke-width="1" height="60" font-family="'Dialog'" font-style="normal" stroke-linejoin="miter" font-size="12px" stroke-dashoffset="0" image-rendering="auto">
  <!--Generated by ySVG 2.5-->
  <defs id="genericDefs"/>
  <g>
    <defs id="defs1">
      <clipPath clipPathUnits="userSpaceOnUse" id="clipPath1">
        <path d="M0 0 L769 0 L769 60 L0 60 L0 0 Z"/>
      </clipPath>
      <clipPath clipPathUnits="userSpaceOnUse" id="clipPath2">
        <path d="M242 264 L1011 264 L1011 324 L242 324 L242 264 Z"/>
      </clipPath>
    </defs>
    <g fill="white" text-rendering="geometricPrecision" shape-rendering="geometricPrecision" transform="translate(-242,-264)" stroke="white">
      <rect x="242" width="769" height="60" y="264" clip-path="url(#clipPath2)" stroke="none"/>
    </g>
    <g fill="white" text-rendering="geometricPrecision" shape-rendering="geometricPrecision" transform="matrix(1,0,0,1,-242,-264)" stroke="white">
      <rect x="257" y="279" clip-path="url(#clipPath2)" width="88" rx="4" ry="4" height="30" stroke="none"/>
    </g>
    <g text-rendering="geometricPrecision" stroke-miterlimit="1.45" shape-rendering="geometricPrecision" font-family="sans-serif" transform="matrix(1,0,0,1,-242,-264)" stroke-linecap="butt">
      <text x="268.9932" xml:space="preserve" y="298.7139" clip-path="url(#clipPath2)" stroke="none">Pre-Harvest</text>
      <rect x="257" y="279" clip-path="url(#clipPath2)" fill="none" width="88" rx="4" ry="4" height="30"/>
    </g>
    <g fill="rgb(153,204,255)" text-rendering="geometricPrecision" shape-rendering="geometricPrecision" transform="matrix(1,0,0,1,-242,-264)" stroke="rgb(153,204,255)">
      <rect x="375" width="96" height="30" y="279" clip-path="url(#clipPath2)" stroke="none"/>
    </g>
    <g text-rendering="geometricPrecision" stroke-miterlimit="1.45" shape-rendering="geometricPrecision" font-family="sans-serif" transform="matrix(1,0,0,1,-242,-264)" stroke-linecap="butt">
      <text x="388.3242" xml:space="preserve" y="298.7139" clip-path="url(#clipPath2)" stroke="none">Post-Harvest</text>
      <rect fill="none" x="375" width="96" height="30" y="279" clip-path="url(#clipPath2)"/>
    </g>
    <g fill="rgb(153,204,255)" text-rendering="geometricPrecision" shape-rendering="geometricPrecision" transform="matrix(1,0,0,1,-242,-264)" stroke="rgb(153,204,255)">
      <rect x="501" width="60" height="30" y="279" clip-path="url(#clipPath2)" stroke="none"/>
    </g>
    <g text-rendering="geometricPrecision" stroke-miterlimit="1.45" shape-rendering="geometricPrecision" font-family="sans-serif" transform="matrix(1,0,0,1,-242,-264)" stroke-linecap="butt">
      <text x="517.002" xml:space="preserve" y="298.7139" clip-path="url(#clipPath2)" stroke="none">Farm</text>
      <rect fill="none" x="501" width="60" height="30" y="279" clip-path="url(#clipPath2)"/>
    </g>
    <g fill="rgb(153,204,255)" text-rendering="geometricPrecision" shape-rendering="geometricPrecision" transform="matrix(1,0,0,1,-242,-264)" stroke="rgb(153,204,255)">
      <rect x="596" width="96" height="30" y="279" clip-path="url(#clipPath2)" stroke="none"/>
    </g>
    <g text-rendering="geometricPrecision" stroke-miterlimit="1.45" shape-rendering="geometricPrecision" font-family="sans-serif" transform="matrix(1,0,0,1,-242,-264)" stroke-linecap="butt">
      <text x="614.3193" xml:space="preserve" y="298.7139" clip-path="url(#clipPath2)" stroke="none">Processing</text>
      <rect fill="none" x="596" width="96" height="30" y="279" clip-path="url(#clipPath2)"/>
    </g>
    <g fill="rgb(153,204,255)" text-rendering="geometricPrecision" shape-rendering="geometricPrecision" transform="matrix(1,0,0,1,-242,-264)" stroke="rgb(153,204,255)">
      <rect x="727" width="60" height="30" y="279" clip-path="url(#clipPath2)" stroke="none"/>
    </g>
    <g text-rendering="geometricPrecision" stroke-miterlimit="1.45" shape-rendering="geometricPrecision" font-family="sans-serif" transform="matrix(1,0,0,1,-242,-264)" stroke-linecap="butt">
      <text x="739.6592" xml:space="preserve" y="298.7139" clip-path="url(#clipPath2)" stroke="none">Export</text>
      <rect fill="none" x="727" width="60" height="30" y="279" clip-path="url(#clipPath2)"/>
    </g>
    <g fill="rgb(153,204,255)" text-rendering="geometricPrecision" shape-rendering="geometricPrecision" transform="matrix(1,0,0,1,-242,-264)" stroke="rgb(153,204,255)">
      <rect x="822" width="79" height="30" y="279" clip-path="url(#clipPath2)" stroke="none"/>
    </g>
    <g text-rendering="geometricPrecision" stroke-miterlimit="1.45" shape-rendering="geometricPrecision" font-family="sans-serif" transform="matrix(1,0,0,1,-242,-264)" stroke-linecap="butt">
      <text x="833.4863" xml:space="preserve" y="298.7139" clip-path="url(#clipPath2)" stroke="none">Wholesale</text>
      <rect fill="none" x="822" width="79" height="30" y="279" clip-path="url(#clipPath2)"/>
    </g>
    <g fill="white" text-rendering="geometricPrecision" shape-rendering="geometricPrecision" transform="matrix(1,0,0,1,-242,-264)" stroke="white">
      <rect x="936" y="279" clip-path="url(#clipPath2)" width="60" rx="4" ry="4" height="30" stroke="none"/>
    </g>
    <g text-rendering="geometricPrecision" stroke-miterlimit="1.45" shape-rendering="geometricPrecision" font-family="sans-serif" transform="matrix(1,0,0,1,-242,-264)" stroke-linecap="butt">
      <text x="950.6602" xml:space="preserve" y="298.7139" clip-path="url(#clipPath2)" stroke="none">Retail</text>
      <rect x="936" y="279" clip-path="url(#clipPath2)" fill="none" width="60" rx="4" ry="4" height="30"/>
      <path fill="none" d="M344.9927 294 L367 294" clip-path="url(#clipPath2)"/>
      <path d="M375 294 L363 289 L366 294 L363 299 Z" clip-path="url(#clipPath2)" stroke="none"/>
      <path fill="none" d="M471 294 L493 294" clip-path="url(#clipPath2)"/>
      <path d="M501 294 L489 289 L492 294 L489 299 Z" clip-path="url(#clipPath2)" stroke="none"/>
      <path fill="none" d="M561 294 L588 294" clip-path="url(#clipPath2)"/>
      <path d="M596 294 L584 289 L587 294 L584 299 Z" clip-path="url(#clipPath2)" stroke="none"/>
      <path fill="none" d="M692 294 L719 294" clip-path="url(#clipPath2)"/>
      <path d="M727 294 L715 289 L718 294 L715 299 Z" clip-path="url(#clipPath2)" stroke="none"/>
      <path fill="none" d="M787 294 L814 294" clip-path="url(#clipPath2)"/>
      <path d="M822 294 L810 289 L813 294 L810 299 Z" clip-path="url(#clipPath2)" stroke="none"/>
      <path fill="none" d="M901 294 L928.0073 294" clip-path="url(#clipPath2)"/>
      <path d="M936.0073 294 L924.0073 289 L927.0073 294 L924.0073 299 Z" clip-path="url(#clipPath2)" stroke="none"/>
    </g>
  </g>
</svg>
