<?xml version="1.0" encoding="UTF-8"?><svg xmlns="http://www.w3.org/2000/svg" xmlns:xlink="http://www.w3.org/1999/xlink" fill-opacity="1" color-rendering="auto" color-interpolation="auto" text-rendering="auto" stroke="black" stroke-linecap="square" width="338" stroke-miterlimit="10" shape-rendering="auto" stroke-opacity="1" fill="black" stroke-dasharray="none" font-weight="normal" stroke-width="1" height="60" font-family="'Dialog'" font-style="normal" stroke-linejoin="miter" font-size="12px" stroke-dashoffset="0" image-rendering="auto">
  <!--Generated by ySVG 2.5-->
  <defs id="genericDefs"/>
  <g>
    <defs id="defs1">
      <clipPath clipPathUnits="userSpaceOnUse" id="clipPath1">
        <path d="M0 0 L338 0 L338 60 L0 60 L0 0 Z"/>
      </clipPath>
      <clipPath clipPathUnits="userSpaceOnUse" id="clipPath2">
        <path d="M266 264 L604 264 L604 324 L266 324 L266 264 Z"/>
      </clipPath>
    </defs>
    <g fill="white" text-rendering="geometricPrecision" shape-rendering="geometricPrecision" transform="translate(-266,-264)" stroke="white">
      <rect x="266" width="338" height="60" y="264" clip-path="url(#clipPath2)" stroke="none"/>
    </g>
    <g fill="white" text-rendering="geometricPrecision" shape-rendering="geometricPrecision" transform="matrix(1,0,0,1,-266,-264)" stroke="white">
      <rect x="281" y="279" clip-path="url(#clipPath2)" width="64" rx="4" ry="4" height="30" stroke="none"/>
    </g>
    <g text-rendering="geometricPrecision" stroke-miterlimit="1.45" shape-rendering="geometricPrecision" font-family="sans-serif" transform="matrix(1,0,0,1,-266,-264)" stroke-linecap="butt">
      <text x="297.6602" xml:space="preserve" y="298.7139" clip-path="url(#clipPath2)" stroke="none">Retail</text>
      <rect x="281" y="279" clip-path="url(#clipPath2)" fill="none" width="64" rx="4" ry="4" height="30"/>
    </g>
    <g fill="rgb(153,204,255)" text-rendering="geometricPrecision" shape-rendering="geometricPrecision" transform="matrix(1,0,0,1,-266,-264)" stroke="rgb(153,204,255)">
      <rect x="375" width="96" height="30" y="279" clip-path="url(#clipPath2)" stroke="none"/>
    </g>
    <g text-rendering="geometricPrecision" stroke-miterlimit="1.45" shape-rendering="geometricPrecision" font-family="sans-serif" transform="matrix(1,0,0,1,-266,-264)" stroke-linecap="butt">
      <text x="394.3125" xml:space="preserve" y="298.7139" clip-path="url(#clipPath2)" stroke="none">Household</text>
      <rect fill="none" x="375" width="96" height="30" y="279" clip-path="url(#clipPath2)"/>
    </g>
    <g fill="white" text-rendering="geometricPrecision" shape-rendering="geometricPrecision" transform="matrix(1,0,0,1,-266,-264)" stroke="white">
      <rect x="501" y="279" clip-path="url(#clipPath2)" width="88" rx="4" ry="4" height="30" stroke="none"/>
    </g>
    <g text-rendering="geometricPrecision" stroke-miterlimit="1.45" shape-rendering="geometricPrecision" font-family="sans-serif" transform="matrix(1,0,0,1,-266,-264)" stroke-linecap="butt">
      <text x="519.6494" xml:space="preserve" y="298.7139" clip-path="url(#clipPath2)" stroke="none">Individual</text>
      <rect x="501" y="279" clip-path="url(#clipPath2)" fill="none" width="88" rx="4" ry="4" height="30"/>
      <path fill="none" d="M344.9849 294 L367 294" clip-path="url(#clipPath2)"/>
      <path d="M375 294 L363 289 L366 294 L363 299 Z" clip-path="url(#clipPath2)" stroke="none"/>
      <path fill="none" d="M471 294 L493.0264 294" clip-path="url(#clipPath2)"/>
      <path d="M501.0264 294 L489.0264 289 L492.0264 294 L489.0264 299 Z" clip-path="url(#clipPath2)" stroke="none"/>
    </g>
  </g>
</svg>
