<?xml version="1.0" encoding="UTF-8"?><svg xmlns="http://www.w3.org/2000/svg" xmlns:xlink="http://www.w3.org/1999/xlink" fill-opacity="1" color-rendering="auto" color-interpolation="auto" text-rendering="auto" stroke="black" stroke-linecap="square" width="575" stroke-miterlimit="10" shape-rendering="auto" stroke-opacity="1" fill="black" stroke-dasharray="none" font-weight="normal" stroke-width="1" height="781" font-family="'Dialog'" font-style="normal" stroke-linejoin="miter" font-size="12px" stroke-dashoffset="0" image-rendering="auto">
  <!--Generated by ySVG 2.5-->
  <defs id="genericDefs"/>
  <g>
    <defs id="defs1">
      <clipPath clipPathUnits="userSpaceOnUse" id="clipPath1">
        <path d="M0 0 L575 0 L575 781 L0 781 L0 0 Z"/>
      </clipPath>
      <clipPath clipPathUnits="userSpaceOnUse" id="clipPath2">
        <path d="M151 34 L726 34 L726 815 L151 815 L151 34 Z"/>
      </clipPath>
      <clipPath clipPathUnits="userSpaceOnUse" id="clipPath3">
        <path d="M129.1738 -76.9482 L129.1738 498.0518 L-651.8262 498.0518 L-651.8262 -76.9482 L129.1738 -76.9482 Z"/>
      </clipPath>
      <clipPath clipPathUnits="userSpaceOnUse" id="clipPath4">
        <path d="M224.6846 -76.9482 L224.6846 498.0518 L-556.3154 498.0518 L-556.3154 -76.9482 L224.6846 -76.9482 Z"/>
      </clipPath>
      <clipPath clipPathUnits="userSpaceOnUse" id="clipPath5">
        <path d="M296.6758 -76.9482 L296.6758 498.0518 L-484.3242 498.0518 L-484.3242 -76.9482 L296.6758 -76.9482 Z"/>
      </clipPath>
      <clipPath clipPathUnits="userSpaceOnUse" id="clipPath6">
        <path d="M402.8691 -76.9482 L402.8691 498.0518 L-378.1309 498.0518 L-378.1309 -76.9482 L402.8691 -76.9482 Z"/>
      </clipPath>
      <clipPath clipPathUnits="userSpaceOnUse" id="clipPath7">
        <path d="M513.9082 -76.9482 L513.9082 498.0518 L-267.0918 498.0518 L-267.0918 -76.9482 L513.9082 -76.9482 Z"/>
      </clipPath>
      <clipPath clipPathUnits="userSpaceOnUse" id="clipPath8">
        <path d="M703.3838 -76.9482 L703.3838 498.0518 L-77.6162 498.0518 L-77.6162 -76.9482 L703.3838 -76.9482 Z"/>
      </clipPath>
    </defs>
    <g fill="white" text-rendering="geometricPrecision" shape-rendering="geometricPrecision" transform="translate(-151,-34)" stroke="white">
      <rect x="151" width="575" height="781" y="34" clip-path="url(#clipPath2)" stroke="none"/>
    </g>
    <g fill="rgb(236,245,255)" text-rendering="geometricPrecision" shape-rendering="geometricPrecision" transform="matrix(1,0,0,1,-151,-34)" stroke="rgb(236,245,255)">
      <path d="M224.9482 49 L224.9482 79 L711 79 L711 49 Z" stroke="none" clip-path="url(#clipPath2)"/>
      <rect x="224.9482" width="486.0518" height="721" y="79" clip-path="url(#clipPath2)" stroke="none"/>
      <rect x="248.9482" y="79" clip-path="url(#clipPath2)" fill="rgb(113,146,178)" width="235" height="24" stroke="none"/>
      <rect x="483.9482" y="79" clip-path="url(#clipPath2)" fill="rgb(113,146,178)" width="227.0518" height="24" stroke="none"/>
      <rect x="224.9482" y="103" clip-path="url(#clipPath2)" fill="rgb(196,215,237)" width="24" height="85" stroke="none"/>
      <rect x="248.9482" y="103" clip-path="url(#clipPath2)" fill="rgb(196,215,237)" width="462.0518" height="85" stroke="none"/>
      <rect x="224.9482" y="188" clip-path="url(#clipPath2)" fill="rgb(171,200,226)" width="24" height="80" stroke="none"/>
      <rect x="248.9482" y="188" clip-path="url(#clipPath2)" fill="rgb(171,200,226)" width="462.0518" height="80" stroke="none"/>
      <rect x="224.9482" y="268" clip-path="url(#clipPath2)" fill="rgb(196,215,237)" width="24" height="94" stroke="none"/>
      <rect x="248.9482" y="268" clip-path="url(#clipPath2)" fill="rgb(196,215,237)" width="462.0518" height="94" stroke="none"/>
      <rect x="224.9482" y="362" clip-path="url(#clipPath2)" fill="rgb(171,200,226)" width="24" height="102.4023" stroke="none"/>
      <rect x="248.9482" y="362" clip-path="url(#clipPath2)" fill="rgb(171,200,226)" width="462.0518" height="102.4023" stroke="none"/>
      <rect x="224.9482" y="464.4023" clip-path="url(#clipPath2)" fill="rgb(196,215,237)" width="24" height="133" stroke="none"/>
      <rect x="248.9482" y="464.4023" clip-path="url(#clipPath2)" fill="rgb(196,215,237)" width="462.0518" height="133" stroke="none"/>
      <rect x="224.9482" y="597.4023" clip-path="url(#clipPath2)" fill="rgb(171,200,226)" width="24" height="202.5977" stroke="none"/>
      <rect x="248.9482" y="597.4023" clip-path="url(#clipPath2)" fill="rgb(171,200,226)" width="462.0518" height="202.5977" stroke="none"/>
    </g>
    <g text-rendering="geometricPrecision" stroke-miterlimit="1.45" shape-rendering="geometricPrecision" transform="matrix(1,0,0,1,-151,-34)" stroke-linecap="butt">
      <rect fill="none" x="224.9482" width="486.0518" height="751" y="49" clip-path="url(#clipPath2)"/>
      <rect fill="none" x="248.9482" width="235" height="721" y="79" clip-path="url(#clipPath2)"/>
      <rect fill="none" x="483.9482" width="227.0518" height="721" y="79" clip-path="url(#clipPath2)"/>
      <rect fill="none" x="224.9482" width="486.0518" height="85" y="103" clip-path="url(#clipPath2)"/>
      <rect fill="none" x="224.9482" width="486.0518" height="80" y="188" clip-path="url(#clipPath2)"/>
      <rect fill="none" x="224.9482" width="486.0518" height="94" y="268" clip-path="url(#clipPath2)"/>
      <rect fill="none" x="224.9482" width="486.0518" height="102.4023" y="362" clip-path="url(#clipPath2)"/>
      <rect fill="none" x="224.9482" width="486.0518" height="133" y="464.4023" clip-path="url(#clipPath2)"/>
      <rect fill="none" x="224.9482" width="486.0518" height="202.5977" y="597.4023" clip-path="url(#clipPath2)"/>
    </g>
    <g font-size="15px" stroke-linecap="butt" transform="matrix(1,0,0,1,-151,-34)" text-rendering="geometricPrecision" font-family="sans-serif" shape-rendering="geometricPrecision" stroke-miterlimit="1.45">
      <text x="339.1411" xml:space="preserve" y="70.0806" clip-path="url(#clipPath2)" stroke="none">Data Input, Imputation Output Location</text>
    </g>
    <g text-rendering="geometricPrecision" stroke-miterlimit="1.45" shape-rendering="geometricPrecision" font-family="sans-serif" transform="matrix(-0,-1,1,-0,76.9482,129.1738)" stroke-linecap="butt">
      <text x="2" xml:space="preserve" y="14.0645" clip-path="url(#clipPath3)" stroke="none">Trade</text>
    </g>
    <g text-rendering="geometricPrecision" stroke-miterlimit="1.45" shape-rendering="geometricPrecision" font-family="sans-serif" transform="matrix(-0,-1,1,-0,76.9482,224.6846)" stroke-linecap="butt">
      <text x="2" xml:space="preserve" y="14.0645" clip-path="url(#clipPath4)" stroke="none">Production</text>
    </g>
    <g text-rendering="geometricPrecision" stroke-miterlimit="1.45" shape-rendering="geometricPrecision" font-family="sans-serif" transform="matrix(1,0,0,1,-151,-34)" stroke-linecap="butt">
      <text x="353.1035" xml:space="preserve" y="96.0645" clip-path="url(#clipPath2)" stroke="none">Input</text>
      <text x="579.4624" xml:space="preserve" y="96.0645" clip-path="url(#clipPath2)" stroke="none">Output</text>
    </g>
    <g text-rendering="geometricPrecision" stroke-miterlimit="1.45" shape-rendering="geometricPrecision" font-family="sans-serif" transform="matrix(-0,-1,1,-0,76.9482,296.6758)" stroke-linecap="butt">
      <text x="2" xml:space="preserve" y="14.0645" clip-path="url(#clipPath5)" stroke="none">Food</text>
    </g>
    <g text-rendering="geometricPrecision" stroke-miterlimit="1.45" shape-rendering="geometricPrecision" font-family="sans-serif" transform="matrix(-0,-1,1,-0,76.9482,402.8691)" stroke-linecap="butt">
      <text x="2" xml:space="preserve" y="14.0645" clip-path="url(#clipPath6)" stroke="none">Tourism</text>
    </g>
    <g text-rendering="geometricPrecision" stroke-miterlimit="1.45" shape-rendering="geometricPrecision" font-family="sans-serif" transform="matrix(-0,-1,1,-0,76.9482,513.9082)" stroke-linecap="butt">
      <text x="2" xml:space="preserve" y="14.0645" clip-path="url(#clipPath7)" stroke="none">Stock</text>
    </g>
    <g text-rendering="geometricPrecision" stroke-miterlimit="1.45" shape-rendering="geometricPrecision" font-family="sans-serif" transform="matrix(-0,-1,1,-0,76.9482,703.3838)" stroke-linecap="butt">
      <text x="2" xml:space="preserve" y="14.0645" clip-path="url(#clipPath8)" stroke="none">Industrial Use</text>
    </g>
    <g fill="rgb(153,204,255)" text-rendering="geometricPrecision" shape-rendering="geometricPrecision" transform="matrix(1,0,0,1,-151,-34)" stroke="rgb(153,204,255)">
      <rect x="274" width="181" height="52" y="120" clip-path="url(#clipPath2)" stroke="none"/>
    </g>
    <g text-rendering="geometricPrecision" stroke-miterlimit="1.45" shape-rendering="geometricPrecision" font-family="sans-serif" transform="matrix(1,0,0,1,-151,-34)" stroke-linecap="butt">
      <text x="327.8115" xml:space="preserve" y="143.3633" clip-path="url(#clipPath2)" stroke="none">domain: trade</text>
      <text x="327.8115" xml:space="preserve" y="158.0645" clip-path="url(#clipPath2)" stroke="none">dataset:</text>
      <rect fill="none" x="274" width="181" height="52" y="120" clip-path="url(#clipPath2)"/>
    </g>
    <g fill="rgb(153,204,255)" text-rendering="geometricPrecision" shape-rendering="geometricPrecision" transform="matrix(1,0,0,1,-151,-34)" stroke="rgb(153,204,255)">
      <rect x="505" width="181" height="52" y="120" clip-path="url(#clipPath2)" stroke="none"/>
    </g>
    <g text-rendering="geometricPrecision" stroke-miterlimit="1.45" shape-rendering="geometricPrecision" font-family="sans-serif" transform="matrix(1,0,0,1,-151,-34)" stroke-linecap="butt">
      <text x="516.4482" xml:space="preserve" y="143.3633" clip-path="url(#clipPath2)" stroke="none">domain: trade</text>
      <text x="516.4482" xml:space="preserve" y="158.0645" clip-path="url(#clipPath2)" stroke="none">dataset: total_trade_cpc_m49</text>
      <rect fill="none" x="505" width="181" height="52" y="120" clip-path="url(#clipPath2)"/>
    </g>
    <g fill="rgb(153,204,255)" text-rendering="geometricPrecision" shape-rendering="geometricPrecision" transform="matrix(1,0,0,1,-151,-34)" stroke="rgb(153,204,255)">
      <rect x="274" width="181" height="52" y="632" clip-path="url(#clipPath2)" stroke="none"/>
    </g>
    <g text-rendering="geometricPrecision" stroke-miterlimit="1.45" shape-rendering="geometricPrecision" font-family="sans-serif" transform="matrix(1,0,0,1,-151,-34)" stroke-linecap="butt">
      <text x="315.4629" xml:space="preserve" y="655.3633" clip-path="url(#clipPath2)" stroke="none">domain: usda</text>
      <text x="315.4629" xml:space="preserve" y="670.0645" clip-path="url(#clipPath2)" stroke="none">dataset: usda_psd</text>
      <rect fill="none" x="274" width="181" height="52" y="632" clip-path="url(#clipPath2)"/>
    </g>
    <g fill="rgb(255,153,0)" text-rendering="geometricPrecision" shape-rendering="geometricPrecision" transform="matrix(1,0,0,1,-151,-34)" stroke="rgb(255,153,0)">
      <rect x="274" width="181" height="79" y="692.5" clip-path="url(#clipPath2)" stroke="none"/>
    </g>
    <g text-rendering="geometricPrecision" stroke-miterlimit="1.45" shape-rendering="geometricPrecision" font-family="sans-serif" transform="matrix(1,0,0,1,-151,-34)" stroke-linecap="butt">
      <text x="307.8018" xml:space="preserve" y="714.6621" clip-path="url(#clipPath2)" stroke="none">domain: industrialuse</text>
      <text x="307.8018" xml:space="preserve" y="729.3633" clip-path="url(#clipPath2)" stroke="none">datasets: </text>
      <text x="307.8018" xml:space="preserve" y="744.0645" clip-path="url(#clipPath2)" stroke="none"> - biofuel</text>
      <text x="307.8018" xml:space="preserve" y="758.7656" clip-path="url(#clipPath2)" stroke="none"> - industrialuse</text>
      <rect x="274" y="692.5" clip-path="url(#clipPath2)" fill="none" width="181" stroke-dasharray="6,2" height="79"/>
    </g>
    <g fill="rgb(153,204,255)" text-rendering="geometricPrecision" shape-rendering="geometricPrecision" transform="matrix(1,0,0,1,-151,-34)" stroke="rgb(153,204,255)">
      <rect x="505" width="181" height="52" y="632" clip-path="url(#clipPath2)" stroke="none"/>
    </g>
    <g text-rendering="geometricPrecision" stroke-miterlimit="1.45" shape-rendering="geometricPrecision" font-family="sans-serif" transform="matrix(1,0,0,1,-151,-34)" stroke-linecap="butt">
      <text x="548.4756" xml:space="preserve" y="655.3633" clip-path="url(#clipPath2)" stroke="none">domain: industrial</text>
      <text x="548.4756" xml:space="preserve" y="670.0645" clip-path="url(#clipPath2)" stroke="none">dataset:</text>
      <rect x="505" y="632" clip-path="url(#clipPath2)" fill="none" width="181" stroke-dasharray="6,2" height="52"/>
    </g>
    <g fill="rgb(153,204,255)" text-rendering="geometricPrecision" shape-rendering="geometricPrecision" transform="matrix(1,0,0,1,-151,-34)" stroke="rgb(153,204,255)">
      <rect x="505" width="181" height="52" y="294" clip-path="url(#clipPath2)" stroke="none"/>
    </g>
    <g text-rendering="geometricPrecision" stroke-miterlimit="1.45" shape-rendering="geometricPrecision" font-family="sans-serif" transform="matrix(1,0,0,1,-151,-34)" stroke-linecap="butt">
      <text x="560.8096" xml:space="preserve" y="317.3633" clip-path="url(#clipPath2)" stroke="none">domain: food</text>
      <text x="560.8096" xml:space="preserve" y="332.0645" clip-path="url(#clipPath2)" stroke="none">dataset:</text>
      <rect x="505" y="294" clip-path="url(#clipPath2)" fill="none" width="181" stroke-dasharray="6,2" height="52"/>
    </g>
    <g fill="rgb(153,204,255)" text-rendering="geometricPrecision" shape-rendering="geometricPrecision" transform="matrix(1,0,0,1,-151,-34)" stroke="rgb(153,204,255)">
      <rect x="505" width="181" height="52" y="202" clip-path="url(#clipPath2)" stroke="none"/>
    </g>
    <g text-rendering="geometricPrecision" stroke-miterlimit="1.45" shape-rendering="geometricPrecision" font-family="sans-serif" transform="matrix(1,0,0,1,-151,-34)" stroke-linecap="butt">
      <text x="541.1279" xml:space="preserve" y="225.3633" clip-path="url(#clipPath2)" stroke="none">domain: agriculture</text>
      <text x="541.1279" xml:space="preserve" y="240.0645" clip-path="url(#clipPath2)" stroke="none">dataset: aproduction</text>
      <rect fill="none" x="505" width="181" height="52" y="202" clip-path="url(#clipPath2)"/>
    </g>
    <g fill="rgb(153,204,255)" text-rendering="geometricPrecision" shape-rendering="geometricPrecision" transform="matrix(1,0,0,1,-151,-34)" stroke="rgb(153,204,255)">
      <rect x="274" width="181" height="52" y="202" clip-path="url(#clipPath2)" stroke="none"/>
    </g>
    <g text-rendering="geometricPrecision" stroke-miterlimit="1.45" shape-rendering="geometricPrecision" font-family="sans-serif" transform="matrix(1,0,0,1,-151,-34)" stroke-linecap="butt">
      <text x="310.1279" xml:space="preserve" y="225.3633" clip-path="url(#clipPath2)" stroke="none">domain: agriculture</text>
      <text x="310.1279" xml:space="preserve" y="240.0645" clip-path="url(#clipPath2)" stroke="none">dataset: aproduction</text>
      <rect fill="none" x="274" width="181" height="52" y="202" clip-path="url(#clipPath2)"/>
    </g>
    <g fill="rgb(153,204,255)" text-rendering="geometricPrecision" shape-rendering="geometricPrecision" transform="matrix(1,0,0,1,-151,-34)" stroke="rgb(153,204,255)">
      <rect x="274" width="181" height="52" y="294" clip-path="url(#clipPath2)" stroke="none"/>
    </g>
    <g text-rendering="geometricPrecision" stroke-miterlimit="1.45" shape-rendering="geometricPrecision" font-family="sans-serif" transform="matrix(1,0,0,1,-151,-34)" stroke-linecap="butt">
      <text x="307.1221" xml:space="preserve" y="317.3633" clip-path="url(#clipPath2)" stroke="none">domain: faostat_one</text>
      <text x="307.1221" xml:space="preserve" y="332.0645" clip-path="url(#clipPath2)" stroke="none">dataset: fs1_sua_upd</text>
      <rect fill="none" x="274" width="181" height="52" y="294" clip-path="url(#clipPath2)"/>
      <text x="546.5479" xml:space="preserve" y="536.9639" clip-path="url(#clipPath2)" stroke="none">no "Stock" domain</text>
      <rect x="505" y="506.25" clip-path="url(#clipPath2)" fill="none" width="181" stroke-dasharray="6,2" height="52"/>
      <rect x="279" y="506.25" clip-path="url(#clipPath2)" fill="none" width="181" stroke-dasharray="6,2" height="52"/>
    </g>
    <g fill="rgb(153,204,255)" text-rendering="geometricPrecision" shape-rendering="geometricPrecision" transform="matrix(1,0,0,1,-151,-34)" stroke="rgb(153,204,255)">
      <rect x="505" width="181" height="52" y="386" clip-path="url(#clipPath2)" stroke="none"/>
    </g>
    <g text-rendering="geometricPrecision" stroke-miterlimit="1.45" shape-rendering="geometricPrecision" font-family="sans-serif" transform="matrix(1,0,0,1,-151,-34)" stroke-linecap="butt">
      <text x="540.8057" xml:space="preserve" y="409.3633" clip-path="url(#clipPath2)" stroke="none">domain: tourism</text>
      <text x="540.8057" xml:space="preserve" y="424.0645" clip-path="url(#clipPath2)" stroke="none">dataset: tourismprod</text>
      <rect fill="none" x="505" width="181" height="52" y="386" clip-path="url(#clipPath2)"/>
    </g>
    <g fill="rgb(153,204,255)" text-rendering="geometricPrecision" shape-rendering="geometricPrecision" transform="matrix(1,0,0,1,-151,-34)" stroke="rgb(153,204,255)">
      <rect x="279" width="181" height="79" y="372.5" clip-path="url(#clipPath2)" stroke="none"/>
    </g>
    <g text-rendering="geometricPrecision" stroke-miterlimit="1.45" shape-rendering="geometricPrecision" font-family="sans-serif" transform="matrix(1,0,0,1,-151,-34)" stroke-linecap="butt">
      <text x="310.4727" xml:space="preserve" y="394.6621" clip-path="url(#clipPath2)" stroke="none">domain: tourism</text>
      <text x="310.4727" xml:space="preserve" y="409.3633" clip-path="url(#clipPath2)" stroke="none">datasets: </text>
      <text x="310.4727" xml:space="preserve" y="424.0645" clip-path="url(#clipPath2)" stroke="none"> - tourist_flow</text>
      <text x="310.4727" xml:space="preserve" y="438.7656" clip-path="url(#clipPath2)" stroke="none"> - tourist_consumption</text>
      <rect fill="none" x="279" width="181" height="79" y="372.5" clip-path="url(#clipPath2)"/>
      <path fill="none" d="M455 146 L497 146" clip-path="url(#clipPath2)"/>
      <path d="M505 146 L493 141 L496 146 L493 151 Z" clip-path="url(#clipPath2)" stroke="none"/>
      <path fill="none" d="M455 658 L477.5 658 L477.5 248 L497.0076 248" clip-path="url(#clipPath2)" stroke="red"/>
      <path fill="red" d="M505.0076 248 L493.0076 243 L496.0076 248 L493.0076 253 Z" clip-path="url(#clipPath2)" stroke="none"/>
      <path fill="none" d="M455 228 L497 228" clip-path="url(#clipPath2)"/>
      <path d="M505 228 L493 223 L496 228 L493 233 Z" clip-path="url(#clipPath2)" stroke="none"/>
      <path fill="none" d="M273.9741 242.2 L190.5 242.2 L190.5 320 L266 320" clip-path="url(#clipPath2)"/>
      <path d="M274 320 L262 315 L265 320 L262 325 Z" clip-path="url(#clipPath2)" stroke="none"/>
      <text x="208.8223" xml:space="preserve" y="285.8139" clip-path="url(#clipPath2)" stroke="none">food</text>
      <path fill="none" d="M455 320 L471.5 320 L471.5 236 L496.9827 236" clip-path="url(#clipPath2)" stroke="red"/>
      <path fill="red" d="M504.9827 236 L492.9827 231 L495.9827 236 L492.9827 241 Z" clip-path="url(#clipPath2)" stroke="none"/>
      <path fill="none" d="M274 228 L166.5 228 L166.5 532.25 L271 532.25" clip-path="url(#clipPath2)"/>
      <path d="M279 532.25 L267 527.25 L270 532.25 L267 537.25 Z" clip-path="url(#clipPath2)" stroke="none"/>
      <text x="182.4961" xml:space="preserve" y="506.9639" clip-path="url(#clipPath2)" stroke="none">stock</text>
      <path fill="none" d="M460 532.25 L463.5 532.25 L463.5 212 L497.0042 212" clip-path="url(#clipPath2)"/>
      <path d="M505.0042 212 L493.0042 207 L496.0042 212 L493.0042 217 Z" clip-path="url(#clipPath2)" stroke="none"/>
      <path fill="none" d="M274.0381 216.2 L182.5 216.2 L182.5 412 L271 412" clip-path="url(#clipPath2)"/>
      <path d="M279 412 L267 407 L270 412 L267 417 Z" clip-path="url(#clipPath2)" stroke="none"/>
      <text x="200.8223" xml:space="preserve" y="388.6489" clip-path="url(#clipPath2)" stroke="none">food</text>
      <path fill="none" d="M460 412 L497 412" clip-path="url(#clipPath2)"/>
      <path d="M505 412 L493 407 L496 412 L493 417 Z" clip-path="url(#clipPath2)" stroke="none"/>
    </g>
  </g>
</svg>
